<svg fill="none" height="100%" width="100%" viewBox="0 0 1280 720" xmlns:xlink="http://www.w3.org/1999/xlink" xmlns="http://www.w3.org/2000/svg"><defs><linearGradient id="i0" gradientUnits="userSpaceOnUse" spreadMethod="pad" x2="621.079" y2="0" x1="-620.738" y1="0"><stop offset="2%" stop-color="#a1adb7" /><stop offset="15.3%" stop-color="#1e0b75" /><stop offset="29.3%" stop-color="#170660" /><stop offset="64.6%" stop-color="#2c1e6b" /><stop offset="100%" stop-color="#12054d" /></linearGradient><radialGradient id="i1" gradientUnits="userSpaceOnUse" spreadMethod="pad" cx="-9.582" cy="-8.502" r="452.129" fy="-8.502" fx="-9.582"><stop offset="0%" stop-color="#a1adb7" /><stop offset="33.8%" stop-color="#2c1e6b" /><stop offset="100%" stop-color="#000000" /></radialGradient><radialGradient id="i2" gradientUnits="userSpaceOnUse" spreadMethod="pad" cx="-70.57" cy="-49.615" r="452.128" fy="-49.615" fx="-70.57"><stop offset="0%" stop-color="#a1adb7" /><stop offset="33.8%" stop-color="#2c1e6b" /><stop offset="100%" stop-color="#000000" /></radialGradient><radialGradient id="i3" gradientUnits="userSpaceOnUse" spreadMethod="pad" cx="-137.914" cy="7.306" r="452.128" fy="7.306" fx="-137.914"><stop offset="0%" stop-color="#a1adb7" /><stop offset="33.8%" stop-color="#2c1e6b" /><stop offset="100%" stop-color="#000000" /></radialGradient><radialGradient id="i4" gradientUnits="userSpaceOnUse" spreadMethod="pad" cx="37.455" cy="71.382" r="452.129" fy="71.382" fx="37.455"><stop offset="0%" stop-color="#a1adb7" /><stop offset="33.8%" stop-color="#2c1e6b" /><stop offset="100%" stop-color="#000000" /></radialGradient><radialGradient id="i5" gradientUnits="userSpaceOnUse" spreadMethod="pad" cx="-158.478" cy="-79.471" r="452.128" fy="-79.471" fx="-158.478"><stop offset="0%" stop-color="#a1adb7" /><stop offset="33.8%" stop-color="#2c1e6b" /><stop offset="100%" stop-color="#000000" /></radialGradient><radialGradient id="i6" gradientUnits="userSpaceOnUse" spreadMethod="pad" cx="196.304" cy="41.028" r="452.129" fy="41.028" fx="196.304"><stop offset="0%" stop-color="#a1adb7" /><stop offset="33.8%" stop-color="#2c1e6b" /><stop offset="100%" stop-color="#000000" /></radialGradient><radialGradient id="i7" gradientUnits="userSpaceOnUse" spreadMethod="pad" cx="103.959" cy="23.382" r="452.128" fy="23.382" fx="103.959"><stop offset="0%" stop-color="#a1adb7" /><stop offset="33.8%" stop-color="#2c1e6b" /><stop offset="100%" stop-color="#000000" /></radialGradient><radialGradient id="i8" gradientUnits="userSpaceOnUse" spreadMethod="pad" cx="29.052" cy="67.979" r="452.129" fy="67.979" fx="29.052"><stop offset="0%" stop-color="#a1adb7" /><stop offset="33.8%" stop-color="#2c1e6b" /><stop offset="100%" stop-color="#000000" /></radialGradient><radialGradient id="i9" gradientUnits="userSpaceOnUse" spreadMethod="pad" cx="226.201" cy="102.312" r="452.129" fy="102.312" fx="226.201"><stop offset="0%" stop-color="#a1adb7" /><stop offset="33.8%" stop-color="#2c1e6b" /><stop offset="100%" stop-color="#000000" /></radialGradient><radialGradient id="i10" gradientUnits="userSpaceOnUse" spreadMethod="pad" cx="97.096" cy="58.153" r="452.128" fy="58.153" fx="97.096"><stop offset="0%" stop-color="#a1adb7" /><stop offset="33.8%" stop-color="#2c1e6b" /><stop offset="100%" stop-color="#000000" /></radialGradient><radialGradient id="i11" gradientUnits="userSpaceOnUse" spreadMethod="pad" cx="56.634" cy="-301.09" r="452.128" fy="-301.09" fx="56.634"><stop offset="0%" stop-color="#a1adb7" /><stop offset="33.8%" stop-color="#2c1e6b" /><stop offset="100%" stop-color="#000000" /></radialGradient><radialGradient id="i12" gradientUnits="userSpaceOnUse" spreadMethod="pad" cx="183.641" cy="-254.722" r="452.128" fy="-254.722" fx="183.641"><stop offset="0%" stop-color="#a1adb7" /><stop offset="33.8%" stop-color="#2c1e6b" /><stop offset="100%" stop-color="#000000" /></radialGradient><radialGradient id="i13" gradientUnits="userSpaceOnUse" spreadMethod="pad" cx="19.993" cy="-253.426" r="452.129" fy="-253.426" fx="19.993"><stop offset="0%" stop-color="#a1adb7" /><stop offset="33.8%" stop-color="#2c1e6b" /><stop offset="100%" stop-color="#000000" /></radialGradient><radialGradient id="i14" gradientUnits="userSpaceOnUse" spreadMethod="pad" cx="-16.276" cy="-340.482" r="452.128" fy="-340.482" fx="-16.276"><stop offset="0%" stop-color="#a1adb7" /><stop offset="33.8%" stop-color="#2c1e6b" /><stop offset="100%" stop-color="#000000" /></radialGradient><radialGradient id="i15" gradientUnits="userSpaceOnUse" spreadMethod="pad" cx="-61.181" cy="-291.481" r="452.128" fy="-291.481" fx="-61.181"><stop offset="0%" stop-color="#a1adb7" /><stop offset="33.8%" stop-color="#2c1e6b" /><stop offset="100%" stop-color="#000000" /></radialGradient><radialGradient id="i16" gradientUnits="userSpaceOnUse" spreadMethod="pad" cx="39.423" cy="-209.484" r="452.129" fy="-209.484" fx="39.423"><stop offset="0%" stop-color="#a1adb7" /><stop offset="33.8%" stop-color="#2c1e6b" /><stop offset="100%" stop-color="#000000" /></radialGradient><radialGradient id="i17" gradientUnits="userSpaceOnUse" spreadMethod="pad" cx="-104.44" cy="-253.007" r="452.129" fy="-253.007" fx="-104.44"><stop offset="0%" stop-color="#a1adb7" /><stop offset="33.8%" stop-color="#2c1e6b" /><stop offset="100%" stop-color="#000000" /></radialGradient><radialGradient id="i18" gradientUnits="userSpaceOnUse" spreadMethod="pad" cx="-156.176" cy="-283.918" r="452.128" fy="-283.918" fx="-156.176"><stop offset="0%" stop-color="#a1adb7" /><stop offset="33.8%" stop-color="#2c1e6b" /><stop offset="100%" stop-color="#000000" /></radialGradient><radialGradient id="i19" gradientUnits="userSpaceOnUse" spreadMethod="pad" cx="-240.806" cy="-154.53" r="452.128" fy="-154.53" fx="-240.806"><stop offset="0%" stop-color="#a1adb7" /><stop offset="33.8%" stop-color="#2c1e6b" /><stop offset="100%" stop-color="#000000" /></radialGradient><radialGradient id="i20" gradientUnits="userSpaceOnUse" spreadMethod="pad" cx="-261.965" cy="-57.494" r="452.129" fy="-57.494" fx="-261.965"><stop offset="0%" stop-color="#a1adb7" /><stop offset="33.8%" stop-color="#2c1e6b" /><stop offset="100%" stop-color="#000000" /></radialGradient><radialGradient id="i21" gradientUnits="userSpaceOnUse" spreadMethod="pad" cx="-223.049" cy="265.674" r="452.129" fy="265.674" fx="-223.049"><stop offset="0%" stop-color="#a1adb7" /><stop offset="33.8%" stop-color="#2c1e6b" /><stop offset="100%" stop-color="#000000" /></radialGradient><radialGradient id="i22" gradientUnits="userSpaceOnUse" spreadMethod="pad" cx="-82.608" cy="230.925" r="452.128" fy="230.925" fx="-82.608"><stop offset="0%" stop-color="#a1adb7" /><stop offset="33.8%" stop-color="#2c1e6b" /><stop offset="100%" stop-color="#000000" /></radialGradient><radialGradient id="i23" gradientUnits="userSpaceOnUse" spreadMethod="pad" cx="-42.778" cy="163.029" r="452.128" fy="163.029" fx="-42.778"><stop offset="0%" stop-color="#a1adb7" /><stop offset="33.8%" stop-color="#2c1e6b" /><stop offset="100%" stop-color="#000000" /></radialGradient><radialGradient id="i24" gradientUnits="userSpaceOnUse" spreadMethod="pad" cx="-32.461" cy="287.704" r="452.128" fy="287.704" fx="-32.461"><stop offset="0%" stop-color="#a1adb7" /><stop offset="33.8%" stop-color="#2c1e6b" /><stop offset="100%" stop-color="#000000" /></radialGradient><radialGradient id="i25" gradientUnits="userSpaceOnUse" spreadMethod="pad" cx="105.931" cy="267.278" r="452.129" fy="267.278" fx="105.931"><stop offset="0%" stop-color="#a1adb7" /><stop offset="33.8%" stop-color="#2c1e6b" /><stop offset="100%" stop-color="#000000" /></radialGradient><radialGradient id="i26" gradientUnits="userSpaceOnUse" spreadMethod="pad" cx="142.427" cy="194.692" r="452.128" fy="194.692" fx="142.427"><stop offset="0%" stop-color="#a1adb7" /><stop offset="33.8%" stop-color="#2c1e6b" /><stop offset="100%" stop-color="#000000" /></radialGradient><radialGradient id="i27" gradientUnits="userSpaceOnUse" spreadMethod="pad" cx="274.098" cy="241.587" r="452.128" fy="241.587" fx="274.098"><stop offset="0%" stop-color="#a1adb7" /><stop offset="33.8%" stop-color="#2c1e6b" /><stop offset="100%" stop-color="#000000" /></radialGradient><radialGradient id="i28" gradientUnits="userSpaceOnUse" spreadMethod="pad" cx="107.463" cy="134.609" r="452.128" fy="134.609" fx="107.463"><stop offset="0%" stop-color="#a1adb7" /><stop offset="33.8%" stop-color="#2c1e6b" /><stop offset="100%" stop-color="#000000" /></radialGradient><radialGradient id="i29" gradientUnits="userSpaceOnUse" spreadMethod="pad" cx="335.917" cy="124.844" r="452.128" fy="124.844" fx="335.917"><stop offset="0%" stop-color="#a1adb7" /><stop offset="33.8%" stop-color="#2c1e6b" /><stop offset="100%" stop-color="#000000" /></radialGradient><radialGradient id="i30" gradientUnits="userSpaceOnUse" spreadMethod="pad" cx="358.316" cy="-3.011" r="452.128" fy="-3.011" fx="358.316"><stop offset="0%" stop-color="#a1adb7" /><stop offset="33.8%" stop-color="#2c1e6b" /><stop offset="100%" stop-color="#000000" /></radialGradient><radialGradient id="i31" gradientUnits="userSpaceOnUse" spreadMethod="pad" cx="-9.582" cy="-8.502" r="452.129" fy="-8.502" fx="-9.582"><stop offset="0%" stop-color="#a1adb7" /><stop offset="33.8%" stop-color="#2c1e6b" /><stop offset="100%" stop-color="#000000" /></radialGradient><radialGradient id="i32" gradientUnits="userSpaceOnUse" spreadMethod="pad" cx="-70.57" cy="-49.615" r="452.128" fy="-49.615" fx="-70.57"><stop offset="0%" stop-color="#a1adb7" /><stop offset="33.8%" stop-color="#2c1e6b" /><stop offset="100%" stop-color="#000000" /></radialGradient><radialGradient id="i33" gradientUnits="userSpaceOnUse" spreadMethod="pad" cx="-137.914" cy="7.306" r="452.128" fy="7.306" fx="-137.914"><stop offset="0%" stop-color="#a1adb7" /><stop offset="33.8%" stop-color="#2c1e6b" /><stop offset="100%" stop-color="#000000" /></radialGradient><radialGradient id="i34" gradientUnits="userSpaceOnUse" spreadMethod="pad" cx="37.455" cy="71.382" r="452.129" fy="71.382" fx="37.455"><stop offset="0%" stop-color="#a1adb7" /><stop offset="33.8%" stop-color="#2c1e6b" /><stop offset="100%" stop-color="#000000" /></radialGradient><radialGradient id="i35" gradientUnits="userSpaceOnUse" spreadMethod="pad" cx="-158.478" cy="-79.471" r="452.128" fy="-79.471" fx="-158.478"><stop offset="0%" stop-color="#a1adb7" /><stop offset="33.8%" stop-color="#2c1e6b" /><stop offset="100%" stop-color="#000000" /></radialGradient><radialGradient id="i36" gradientUnits="userSpaceOnUse" spreadMethod="pad" cx="196.304" cy="41.028" r="452.129" fy="41.028" fx="196.304"><stop offset="0%" stop-color="#a1adb7" /><stop offset="33.8%" stop-color="#2c1e6b" /><stop offset="100%" stop-color="#000000" /></radialGradient><radialGradient id="i37" gradientUnits="userSpaceOnUse" spreadMethod="pad" cx="103.959" cy="23.382" r="452.128" fy="23.382" fx="103.959"><stop offset="0%" stop-color="#a1adb7" /><stop offset="33.8%" stop-color="#2c1e6b" /><stop offset="100%" stop-color="#000000" /></radialGradient><radialGradient id="i38" gradientUnits="userSpaceOnUse" spreadMethod="pad" cx="29.052" cy="67.979" r="452.129" fy="67.979" fx="29.052"><stop offset="0%" stop-color="#a1adb7" /><stop offset="33.8%" stop-color="#2c1e6b" /><stop offset="100%" stop-color="#000000" /></radialGradient><radialGradient id="i39" gradientUnits="userSpaceOnUse" spreadMethod="pad" cx="226.201" cy="102.312" r="452.129" fy="102.312" fx="226.201"><stop offset="0%" stop-color="#a1adb7" /><stop offset="33.8%" stop-color="#2c1e6b" /><stop offset="100%" stop-color="#000000" /></radialGradient><radialGradient id="i40" gradientUnits="userSpaceOnUse" spreadMethod="pad" cx="97.096" cy="58.153" r="452.128" fy="58.153" fx="97.096"><stop offset="0%" stop-color="#a1adb7" /><stop offset="33.8%" stop-color="#2c1e6b" /><stop offset="100%" stop-color="#000000" /></radialGradient><radialGradient id="i41" gradientUnits="userSpaceOnUse" spreadMethod="pad" cx="56.634" cy="-301.09" r="452.128" fy="-301.09" fx="56.634"><stop offset="0%" stop-color="#a1adb7" /><stop offset="33.8%" stop-color="#2c1e6b" /><stop offset="100%" stop-color="#000000" /></radialGradient><radialGradient id="i42" gradientUnits="userSpaceOnUse" spreadMethod="pad" cx="183.641" cy="-254.722" r="452.128" fy="-254.722" fx="183.641"><stop offset="0%" stop-color="#a1adb7" /><stop offset="33.8%" stop-color="#2c1e6b" /><stop offset="100%" stop-color="#000000" /></radialGradient><radialGradient id="i43" gradientUnits="userSpaceOnUse" spreadMethod="pad" cx="19.993" cy="-253.426" r="452.129" fy="-253.426" fx="19.993"><stop offset="0%" stop-color="#a1adb7" /><stop offset="33.8%" stop-color="#2c1e6b" /><stop offset="100%" stop-color="#000000" /></radialGradient><radialGradient id="i44" gradientUnits="userSpaceOnUse" spreadMethod="pad" cx="-16.276" cy="-340.482" r="452.128" fy="-340.482" fx="-16.276"><stop offset="0%" stop-color="#a1adb7" /><stop offset="33.8%" stop-color="#2c1e6b" /><stop offset="100%" stop-color="#000000" /></radialGradient><radialGradient id="i45" gradientUnits="userSpaceOnUse" spreadMethod="pad" cx="-61.181" cy="-291.481" r="452.128" fy="-291.481" fx="-61.181"><stop offset="0%" stop-color="#a1adb7" /><stop offset="33.8%" stop-color="#2c1e6b" /><stop offset="100%" stop-color="#000000" /></radialGradient><radialGradient id="i46" gradientUnits="userSpaceOnUse" spreadMethod="pad" cx="39.423" cy="-209.484" r="452.129" fy="-209.484" fx="39.423"><stop offset="0%" stop-color="#a1adb7" /><stop offset="33.8%" stop-color="#2c1e6b" /><stop offset="100%" stop-color="#000000" /></radialGradient><radialGradient id="i47" gradientUnits="userSpaceOnUse" spreadMethod="pad" cx="-104.44" cy="-253.007" r="452.129" fy="-253.007" fx="-104.44"><stop offset="0%" stop-color="#a1adb7" /><stop offset="33.8%" stop-color="#2c1e6b" /><stop offset="100%" stop-color="#000000" /></radialGradient><radialGradient id="i48" gradientUnits="userSpaceOnUse" spreadMethod="pad" cx="-156.176" cy="-283.918" r="452.128" fy="-283.918" fx="-156.176"><stop offset="0%" stop-color="#a1adb7" /><stop offset="33.8%" stop-color="#2c1e6b" /><stop offset="100%" stop-color="#000000" /></radialGradient><radialGradient id="i49" gradientUnits="userSpaceOnUse" spreadMethod="pad" cx="-240.806" cy="-154.53" r="452.128" fy="-154.53" fx="-240.806"><stop offset="0%" stop-color="#a1adb7" /><stop offset="33.8%" stop-color="#2c1e6b" /><stop offset="100%" stop-color="#000000" /></radialGradient><radialGradient id="i50" gradientUnits="userSpaceOnUse" spreadMethod="pad" cx="-261.965" cy="-57.494" r="452.129" fy="-57.494" fx="-261.965"><stop offset="0%" stop-color="#a1adb7" /><stop offset="33.8%" stop-color="#2c1e6b" /><stop offset="100%" stop-color="#000000" /></radialGradient><radialGradient id="i51" gradientUnits="userSpaceOnUse" spreadMethod="pad" cx="-223.049" cy="265.674" r="452.129" fy="265.674" fx="-223.049"><stop offset="0%" stop-color="#a1adb7" /><stop offset="33.8%" stop-color="#2c1e6b" /><stop offset="100%" stop-color="#000000" /></radialGradient><radialGradient id="i52" gradientUnits="userSpaceOnUse" spreadMethod="pad" cx="-82.608" cy="230.925" r="452.128" fy="230.925" fx="-82.608"><stop offset="0%" stop-color="#a1adb7" /><stop offset="33.8%" stop-color="#2c1e6b" /><stop offset="100%" stop-color="#000000" /></radialGradient><radialGradient id="i53" gradientUnits="userSpaceOnUse" spreadMethod="pad" cx="-42.778" cy="163.029" r="452.128" fy="163.029" fx="-42.778"><stop offset="0%" stop-color="#a1adb7" /><stop offset="33.8%" stop-color="#2c1e6b" /><stop offset="100%" stop-color="#000000" /></radialGradient><radialGradient id="i54" gradientUnits="userSpaceOnUse" spreadMethod="pad" cx="-32.461" cy="287.704" r="452.128" fy="287.704" fx="-32.461"><stop offset="0%" stop-color="#a1adb7" /><stop offset="33.8%" stop-color="#2c1e6b" /><stop offset="100%" stop-color="#000000" /></radialGradient><radialGradient id="i55" gradientUnits="userSpaceOnUse" spreadMethod="pad" cx="105.931" cy="267.278" r="452.129" fy="267.278" fx="105.931"><stop offset="0%" stop-color="#a1adb7" /><stop offset="33.8%" stop-color="#2c1e6b" /><stop offset="100%" stop-color="#000000" /></radialGradient><radialGradient id="i56" gradientUnits="userSpaceOnUse" spreadMethod="pad" cx="142.427" cy="194.692" r="452.128" fy="194.692" fx="142.427"><stop offset="0%" stop-color="#a1adb7" /><stop offset="33.8%" stop-color="#2c1e6b" /><stop offset="100%" stop-color="#000000" /></radialGradient><radialGradient id="i57" gradientUnits="userSpaceOnUse" spreadMethod="pad" cx="274.098" cy="241.587" r="452.128" fy="241.587" fx="274.098"><stop offset="0%" stop-color="#a1adb7" /><stop offset="33.8%" stop-color="#2c1e6b" /><stop offset="100%" stop-color="#000000" /></radialGradient><radialGradient id="i58" gradientUnits="userSpaceOnUse" spreadMethod="pad" cx="107.463" cy="134.609" r="452.128" fy="134.609" fx="107.463"><stop offset="0%" stop-color="#a1adb7" /><stop offset="33.8%" stop-color="#2c1e6b" /><stop offset="100%" stop-color="#000000" /></radialGradient><radialGradient id="i59" gradientUnits="userSpaceOnUse" spreadMethod="pad" cx="335.917" cy="124.844" r="452.128" fy="124.844" fx="335.917"><stop offset="0%" stop-color="#a1adb7" /><stop offset="33.8%" stop-color="#2c1e6b" /><stop offset="100%" stop-color="#000000" /></radialGradient><radialGradient id="i60" gradientUnits="userSpaceOnUse" spreadMethod="pad" cx="358.316" cy="-3.011" r="452.128" fy="-3.011" fx="358.316"><stop offset="0%" stop-color="#a1adb7" /><stop offset="33.8%" stop-color="#2c1e6b" /><stop offset="100%" stop-color="#000000" /></radialGradient></defs><g transform="matrix(1.552,-0.299,0.291,1.51,608.327,365)" id="i61"><g id="i62"><path fill="url(#i0)" d="M620.909,358.588C620.909,358.588,-620.909,358.588,-620.909,358.588C-620.909,358.588,-620.909,-358.588,-620.909,-358.588C-620.909,-358.588,620.909,-358.588,620.909,-358.588C620.909,-358.588,620.909,358.588,620.909,358.588Z" /></g></g><g opacity="0.39" id="i63"><g transform="translate(62.363,372.723)"><animateTransform repeatCount="indefinite" type="translate" attributeName="transform" dur="10.01s" begin="0s" calcMode="spline" values="62.363 372.723; 82.363 352.723; 102.363 372.723; 82.363 392.723; 62.363 372.723; 62.363 372.723" keyTimes="0; 0.250126; 0.49205; 0.736667; 0.98; 1" keySplines="0.333 0 0.833 0.828; 0.167 0.162 0.833 0.834; 0.167 0.168 0.833 0.835; 0.167 0.169 0.667 1; 0 0 1 1" fill="freeze" /><g transform="scale(1,1) translate(2991.637,-306.723)"><g id="i64" transform="matrix(1,0,0,1,0,0)"><g id="i65" transform="matrix(1,0,0,1,-2972.83,255.498)"><path fill="url(#i1)" d="M-111.038,-256.76C-111.038,-256.76,-112.058,-254.988,-112.058,-254.988C-112.058,-254.988,18.902,-179.015,18.902,-179.015C18.902,-179.015,-119.47,-98.722,-119.47,-98.722C-119.787,-98.541,-119.981,-98.199,-119.979,-97.828C-119.977,-97.465,-119.779,-97.123,-119.458,-96.946C-119.458,-96.946,29.85,-13.286,29.85,-13.286C29.85,-13.286,29.85,100.107,29.85,100.107C29.85,100.474,30.049,100.812,30.366,100.993C30.685,101.178,31.077,101.175,31.392,100.985C31.392,100.985,117.937,50.079,117.937,50.079C117.937,50.079,117.937,198.44,117.937,198.44C117.937,198.44,94.314,213.733,94.314,213.733C94.015,213.918,93.838,214.246,93.838,214.596C93.838,214.596,93.838,256.76,93.838,256.76C93.838,256.76,95.878,256.76,95.878,256.76C95.878,256.76,95.878,215.161,95.878,215.161C95.878,215.161,119.499,199.868,119.499,199.868C119.8,199.681,119.979,199.355,119.979,199.003C119.979,199.003,119.979,48.295,119.979,48.295C119.979,47.928,119.785,47.59,119.466,47.409C119.149,47.228,118.761,47.228,118.44,47.413C118.44,47.413,31.895,98.322,31.895,98.322C31.895,98.322,31.895,-13.884,31.895,-13.884C31.895,-14.255,31.695,-14.597,31.371,-14.778C31.371,-14.778,-116.896,-97.853,-116.896,-97.853C-116.896,-97.853,21.453,-178.133,21.453,-178.133C21.768,-178.314,21.962,-178.648,21.962,-179.015C21.962,-179.378,21.766,-179.716,21.451,-179.901C21.451,-179.901,-111.038,-256.76,-111.038,-256.76Z" /></g><g id="i66" transform="matrix(1,0,0,1,-2911.841,214.385)"><path fill="url(#i2)" d="M-43.644,-236.256C-43.644,-236.256,-165.073,-165.484,-165.073,-165.484C-165.382,-165.303,-165.578,-164.965,-165.578,-164.602C-165.578,-164.239,-165.382,-163.905,-165.073,-163.72C-165.073,-163.72,-11.63,-73.795,-11.63,-73.795C-11.306,-73.597,-10.908,-73.61,-10.591,-73.8C-10.591,-73.8,47.624,-108.899,47.624,-108.899C47.624,-108.899,126.035,-64.58,126.035,-64.58C126.035,-64.58,126.035,-17.977,126.035,-17.977C126.035,-17.977,86.828,4.181,86.828,4.181C86.509,4.362,86.311,4.7,86.311,5.071C86.311,5.071,86.311,94.586,86.311,94.586C86.311,94.947,86.501,95.281,86.81,95.466C87.119,95.651,87.503,95.653,87.82,95.484C87.82,95.484,116.537,79.898,116.537,79.898C116.537,79.898,116.537,235.235,116.537,235.235C116.537,235.604,116.737,235.942,117.056,236.123C117.373,236.304,117.767,236.301,118.084,236.111C118.084,236.111,165.578,207.612,165.578,207.612C165.578,207.612,164.529,205.86,164.529,205.86C164.529,205.86,118.579,233.432,118.579,233.432C118.579,233.432,118.579,78.18,118.579,78.18C118.579,77.819,118.391,77.486,118.08,77.302C117.769,77.117,117.388,77.112,117.073,77.281C117.073,77.281,88.355,92.869,88.355,92.869C88.355,92.869,88.355,5.665,88.355,5.665C88.355,5.665,127.56,-16.493,127.56,-16.493C127.881,-16.674,128.081,-17.012,128.081,-17.379C128.081,-17.379,128.081,-65.177,128.081,-65.177C128.081,-65.544,127.881,-65.883,127.56,-66.068C127.56,-66.068,48.11,-110.972,48.11,-110.972C47.791,-111.149,47.395,-111.145,47.08,-110.956C47.08,-110.956,-11.123,-75.865,-11.123,-75.865C-11.123,-75.865,-162.528,-164.602,-162.528,-164.602C-162.528,-164.602,-42.612,-234.492,-42.612,-234.492C-42.612,-234.492,-43.644,-236.256,-43.644,-236.256Z" /></g><g id="i67" transform="matrix(1,0,0,1,-2844.498,271.306)"><path fill="url(#i3)" d="M79.314,-271.431C79.314,-271.431,-21.113,-212.789,-21.113,-212.789C-21.432,-212.604,-21.626,-212.266,-21.622,-211.899C-21.618,-211.532,-21.415,-211.194,-21.098,-211.017C-21.098,-211.017,57.647,-166.99,57.647,-166.99C57.647,-166.99,-79.835,-87.571,-79.835,-87.571C-80.154,-87.386,-80.35,-87.044,-80.344,-86.673C-80.338,-86.306,-80.136,-85.968,-79.81,-85.791C-79.81,-85.791,-38.891,-63.629,-38.891,-63.629C-38.891,-63.629,-38.891,157.651,-38.891,157.651C-38.891,158.018,-38.695,158.356,-38.378,158.537C-38.059,158.718,-37.672,158.714,-37.35,158.529C-37.35,158.529,18.104,125.75,18.104,125.75C18.104,125.75,18.104,271.431,18.104,271.431C18.104,271.431,20.149,271.431,20.149,271.431C20.149,271.431,20.149,123.957,20.149,123.957C20.149,123.59,19.948,123.252,19.631,123.071C19.312,122.89,18.927,122.894,18.605,123.079C18.605,123.079,-36.851,155.86,-36.851,155.86C-36.851,155.86,-36.851,-64.235,-36.851,-64.235C-36.851,-64.61,-37.053,-64.956,-37.383,-65.133C-37.383,-65.133,-77.232,-86.714,-77.232,-86.714C-77.232,-86.714,60.225,-166.116,60.225,-166.116C60.546,-166.301,60.738,-166.64,60.738,-167.011C60.734,-167.378,60.534,-167.716,60.212,-167.893C60.212,-167.893,-18.541,-211.928,-18.541,-211.928C-18.541,-211.928,80.344,-269.671,80.344,-269.671C80.344,-269.671,79.314,-271.431,79.314,-271.431Z" /></g><g id="i68" transform="matrix(1,0,0,1,-3019.867,335.382)"><path fill="url(#i4)" d="M-101.37,-263.487C-101.37,-263.487,-102.364,-261.702,-102.364,-261.702C-102.364,-261.702,56.826,-173.208,56.826,-173.208C56.826,-173.208,-43.495,-116.247,-43.495,-116.247C-43.817,-116.066,-44.014,-115.72,-44.01,-115.349C-44.01,-114.982,-43.809,-114.64,-43.481,-114.463C-43.481,-114.463,36.303,-70.712,36.303,-70.712C36.303,-70.712,36.303,-14.469,36.303,-14.469C36.303,-14.104,36.499,-13.764,36.814,-13.583C37.133,-13.406,37.525,-13.402,37.838,-13.587C37.838,-13.587,100.321,-50.042,100.321,-50.042C100.321,-50.042,100.321,109.222,100.321,109.222C100.321,109.222,54.081,136.074,54.081,136.074C53.766,136.257,53.572,136.593,53.572,136.956C53.572,136.956,53.572,263.487,53.572,263.487C53.572,263.487,55.619,263.487,55.619,263.487C55.619,263.487,55.619,137.546,55.619,137.546C55.619,137.546,101.855,110.696,101.855,110.696C102.17,110.511,102.364,110.174,102.364,109.811C102.364,109.811,102.364,-51.823,102.364,-51.823C102.364,-52.19,102.167,-52.528,101.85,-52.709C101.533,-52.89,101.143,-52.89,100.826,-52.705C100.826,-52.705,38.345,-16.249,38.345,-16.249C38.345,-16.249,38.345,-71.318,38.345,-71.318C38.345,-71.689,38.144,-72.031,37.816,-72.212C37.816,-72.212,-40.894,-115.374,-40.894,-115.374C-40.894,-115.374,59.417,-172.33,59.417,-172.33C59.739,-172.511,59.936,-172.849,59.934,-173.224C59.932,-173.591,59.73,-173.933,59.408,-174.114C59.408,-174.114,-101.37,-263.487,-101.37,-263.487Z" /></g><g id="i69" transform="matrix(1,0,0,1,-2823.934,184.529)"><path fill="url(#i5)" d="M-81.457,-149.3C-81.457,-149.3,-99.592,-137.207,-99.592,-137.207C-99.887,-137.009,-100.057,-136.675,-100.045,-136.321C-100.033,-135.966,-99.835,-135.645,-99.526,-135.468C-99.526,-135.468,-41.471,-102.651,-41.471,-102.651C-41.471,-102.651,-80.55,-79.377,-80.55,-79.377C-80.863,-79.187,-81.054,-78.845,-81.046,-78.478C-81.038,-78.111,-80.834,-77.773,-80.513,-77.6C-80.513,-77.6,-2.613,-35.263,-2.613,-35.263C-2.613,-35.263,-41.7,-11.144,-41.7,-11.144C-42.015,-10.95,-42.198,-10.604,-42.186,-10.237C-42.17,-9.87,-41.962,-9.537,-41.634,-9.368C-41.634,-9.368,-20.593,1.571,-20.593,1.571C-20.593,1.571,-20.593,77.326,-20.593,77.326C-20.593,77.697,-20.397,78.035,-20.078,78.212C-19.757,78.397,-19.363,78.394,-19.05,78.204C-19.05,78.204,77.851,20.403,77.851,20.403C77.851,20.403,77.851,148.279,77.851,148.279C77.851,148.629,78.032,148.959,78.329,149.144C78.63,149.329,79.001,149.351,79.318,149.198C79.318,149.198,100.046,139.179,100.046,139.179C100.046,139.179,99.155,137.342,99.155,137.342C99.155,137.342,79.895,146.651,79.895,146.651C79.895,146.651,79.895,18.602,79.895,18.602C79.895,18.235,79.695,17.896,79.376,17.715C79.057,17.53,78.663,17.539,78.35,17.728C78.35,17.728,-18.553,75.529,-18.553,75.529C-18.553,75.529,-18.553,0.949,-18.553,0.949C-18.553,0.57,-18.765,0.219,-19.103,0.046C-19.103,0.046,-39.095,-10.353,-39.095,-10.353C-39.095,-10.353,-0.039,-34.451,-0.039,-34.451C0.27,-34.645,0.455,-34.983,0.447,-35.346C0.435,-35.713,0.234,-36.043,-0.088,-36.216C-0.088,-36.216,-77.961,-78.536,-77.961,-78.536C-77.961,-78.536,-38.914,-101.798,-38.914,-101.798C-38.599,-101.987,-38.411,-102.326,-38.415,-102.689C-38.419,-103.052,-38.617,-103.385,-38.934,-103.566C-38.934,-103.566,-97.075,-136.432,-97.075,-136.432C-97.075,-136.432,-80.323,-147.601,-80.323,-147.601C-80.323,-147.601,-81.457,-149.3,-81.457,-149.3Z" /></g><g id="i70" transform="matrix(1,0,0,1,-3178.716,305.028)"><path fill="url(#i6)" d="M-134.834,-163.706C-134.834,-163.706,-135.848,-161.93,-135.848,-161.93C-135.848,-161.93,-98.911,-140.625,-98.911,-140.625C-98.911,-140.625,-157.821,-106.798,-157.821,-106.798C-158.14,-106.613,-158.336,-106.272,-158.334,-105.907C-158.332,-105.538,-158.133,-105.202,-157.814,-105.021C-157.814,-105.021,78.577,28.18,78.577,28.18C78.577,28.18,78.577,141.575,78.577,141.575C78.577,141.938,78.771,142.276,79.088,142.459C79.401,142.64,79.789,142.645,80.106,142.464C80.106,142.464,156.292,98.97,156.292,98.97C156.292,98.97,156.292,163.706,156.292,163.706C156.292,163.706,158.334,163.706,158.334,163.706C158.334,163.706,158.334,97.211,158.334,97.211C158.334,96.848,158.138,96.512,157.823,96.329C157.51,96.146,157.122,96.141,156.805,96.322C156.805,96.322,80.621,139.818,80.621,139.818C80.621,139.818,80.621,27.583,80.621,27.583C80.621,27.216,80.421,26.877,80.102,26.694C80.102,26.694,-155.249,-105.918,-155.249,-105.918C-155.249,-105.918,-96.345,-139.741,-96.345,-139.741C-96.028,-139.922,-95.832,-140.263,-95.832,-140.628C-95.832,-140.993,-96.032,-141.331,-96.349,-141.514C-96.349,-141.514,-134.834,-163.706,-134.834,-163.706Z" /></g><g id="i71" transform="matrix(1,0,0,1,-3086.371,287.382)"><path fill="url(#i7)" d="M-165.03,-262.916C-165.03,-262.916,-166.164,-261.218,-166.164,-261.218C-166.164,-261.218,-51.819,-184.925,-51.819,-184.925C-51.819,-184.925,-133.286,-138.737,-133.286,-138.737C-133.603,-138.558,-133.801,-138.224,-133.805,-137.859C-133.809,-137.496,-133.62,-137.156,-133.307,-136.971C-133.307,-136.971,-36.946,-79.627,-36.946,-79.627C-36.631,-79.442,-36.239,-79.438,-35.918,-79.619C-35.918,-79.619,33.375,-119.503,33.375,-119.503C33.375,-119.503,154.473,-51.345,154.473,-51.345C154.473,-51.345,154.473,17.399,154.473,17.399C154.473,17.399,104.216,44.33,104.216,44.33C103.886,44.509,103.678,44.853,103.678,45.228C103.678,45.228,103.678,112.589,103.678,112.589C103.678,112.95,103.868,113.282,104.179,113.467C104.488,113.648,104.87,113.657,105.185,113.486C105.185,113.486,133.904,97.896,133.904,97.896C133.904,97.896,133.904,254.281,133.904,254.281C133.904,254.648,134.102,254.988,134.423,255.171C134.743,255.348,135.137,255.349,135.45,255.157C135.45,255.157,164.117,237.949,164.117,237.949C164.117,237.949,164.117,262.916,164.117,262.916C164.117,262.916,166.164,262.916,166.164,262.916C166.164,262.916,166.164,236.146,166.164,236.146C166.164,235.779,165.964,235.437,165.645,235.256C165.323,235.077,164.931,235.078,164.618,235.27C164.618,235.27,135.944,252.478,135.944,252.478C135.944,252.478,135.944,96.179,135.944,96.179C135.944,95.82,135.757,95.486,135.45,95.301C135.137,95.12,134.755,95.112,134.44,95.285C134.44,95.285,105.723,110.869,105.723,110.869C105.723,110.869,105.723,45.842,105.723,45.842C105.723,45.842,155.977,18.912,155.977,18.912C156.309,18.735,156.517,18.386,156.517,18.009C156.517,18.009,156.517,-51.942,156.517,-51.942C156.517,-52.309,156.317,-52.648,155.996,-52.829C155.996,-52.829,33.869,-121.568,33.869,-121.568C33.556,-121.745,33.172,-121.741,32.859,-121.564C32.859,-121.564,-36.416,-81.692,-36.416,-81.692C-36.416,-81.692,-130.751,-137.826,-130.751,-137.826C-130.751,-137.826,-49.366,-183.965,-49.366,-183.965C-49.061,-184.142,-48.865,-184.464,-48.851,-184.814C-48.839,-185.169,-49.01,-185.506,-49.307,-185.704C-49.307,-185.704,-165.03,-262.916,-165.03,-262.916Z" /></g><g id="i72" transform="matrix(1,0,0,1,-3011.464,331.979)"><path fill="url(#i8)" d="M67.276,-228.236C67.276,-228.236,-11.309,-182.461,-11.309,-182.461C-11.626,-182.28,-11.82,-181.942,-11.816,-181.575C-11.812,-181.208,-11.611,-180.87,-11.292,-180.689C-11.292,-180.689,67.451,-136.662,67.451,-136.662C67.451,-136.662,-70.029,-57.248,-70.029,-57.248C-70.348,-57.063,-70.544,-56.716,-70.54,-56.349C-70.536,-55.978,-70.33,-55.64,-70.004,-55.465C-70.004,-55.465,-29.087,-33.301,-29.087,-33.301C-29.087,-33.301,-29.087,228.236,-29.087,228.236C-29.087,228.236,-27.045,228.236,-27.045,228.236C-27.045,228.236,-27.045,-33.911,-27.045,-33.911C-27.045,-34.286,-27.251,-34.629,-27.581,-34.81C-27.581,-34.81,-67.426,-56.391,-67.426,-56.391C-67.426,-56.391,70.031,-135.793,70.031,-135.793C70.348,-135.974,70.542,-136.316,70.54,-136.683C70.538,-137.05,70.337,-137.388,70.018,-137.569C70.018,-137.569,-8.733,-181.6,-8.733,-181.6C-8.733,-181.6,68.306,-226.472,68.306,-226.472C68.306,-226.472,67.276,-228.236,67.276,-228.236Z" /></g><g id="i73" transform="matrix(1,0,0,1,-3208.613,366.312)"><path fill="url(#i9)" d="M-51.977,-148.549C-52.158,-148.549,-52.338,-148.5,-52.499,-148.407C-52.499,-148.407,-128.651,-102.867,-128.651,-102.867C-128.651,-102.867,-127.611,-101.11,-127.611,-101.11C-127.611,-101.11,-51.961,-146.35,-51.961,-146.35C-51.961,-146.35,47.017,-91.364,47.017,-91.364C47.017,-91.364,-11.926,-56.168,-11.926,-56.168C-12.243,-55.978,-12.431,-55.635,-12.425,-55.27C-12.421,-54.903,-12.216,-54.567,-11.897,-54.394C-11.897,-54.394,67.887,-10.643,67.887,-10.643C67.887,-10.643,67.887,35.387,67.887,35.387C67.887,35.754,68.083,36.092,68.4,36.273C68.717,36.458,69.102,36.453,69.426,36.267C69.426,36.267,126.609,2.631,126.609,2.631C126.609,2.631,126.609,101.617,126.609,101.617C126.609,101.617,46.807,146.771,46.807,146.771C46.807,146.771,47.812,148.549,47.812,148.549C47.812,148.549,128.134,103.102,128.134,103.102C128.456,102.921,128.651,102.583,128.651,102.214C128.651,102.214,128.651,0.842,128.651,0.842C128.651,0.475,128.455,0.141,128.138,-0.04C127.819,-0.228,127.429,-0.221,127.114,-0.036C127.114,-0.036,69.929,33.6,69.929,33.6C69.929,33.6,69.929,-11.247,69.929,-11.247C69.929,-11.62,69.727,-11.964,69.399,-12.145C69.399,-12.145,-9.35,-55.327,-9.35,-55.327C-9.35,-55.327,49.585,-90.517,49.585,-90.517C49.898,-90.705,50.087,-91.045,50.081,-91.41C50.077,-91.777,49.877,-92.112,49.558,-92.289C49.558,-92.289,-51.481,-148.422,-51.481,-148.422C-51.638,-148.506,-51.806,-148.549,-51.977,-148.549Z" /></g><g id="i74" transform="matrix(1,0,0,1,-3079.508,322.153)"><path fill="url(#i10)" d="M-15.484,-191.166C-15.484,-191.166,-77.507,-154.969,-77.507,-154.969C-77.824,-154.786,-78.016,-154.443,-78.014,-154.078C-78.012,-153.711,-77.814,-153.377,-77.495,-153.196C-77.495,-153.196,-6.468,-113.256,-6.468,-113.256C-6.468,-113.256,-45.538,-89.977,-45.538,-89.977C-45.853,-89.788,-46.045,-89.446,-46.037,-89.079C-46.029,-88.712,-45.825,-88.378,-45.501,-88.201C-45.501,-88.201,32.347,-45.893,32.347,-45.893C32.347,-45.893,-7.37,-22.876,-7.37,-22.876C-7.687,-22.693,-7.883,-22.35,-7.881,-21.981C-7.875,-21.616,-7.673,-21.278,-7.354,-21.097C-7.354,-21.097,14.412,-9.048,14.412,-9.048C14.412,-9.048,14.412,36.119,14.412,36.119C14.412,36.486,14.608,36.828,14.93,37.007C15.254,37.19,15.641,37.184,15.956,36.996C15.956,36.996,75.974,1.238,75.974,1.238C75.974,1.238,75.974,191.166,75.974,191.166C75.974,191.166,78.014,191.166,78.014,191.166C78.014,191.166,78.014,-0.562,78.014,-0.562C78.014,-0.927,77.818,-1.269,77.499,-1.45C77.177,-1.633,76.786,-1.627,76.471,-1.44C76.471,-1.44,16.454,34.321,16.454,34.321C16.454,34.321,16.454,-9.65,16.454,-9.65C16.454,-10.023,16.252,-10.365,15.929,-10.542C15.929,-10.542,-4.784,-22.012,-4.784,-22.012C-4.784,-22.012,34.946,-45.036,34.946,-45.036C35.265,-45.221,35.459,-45.563,35.455,-45.934C35.449,-46.301,35.243,-46.639,34.919,-46.816C34.919,-46.816,-42.952,-89.137,-42.952,-89.137C-42.952,-89.137,-3.906,-112.403,-3.906,-112.403C-3.593,-112.592,-3.404,-112.93,-3.408,-113.293C-3.412,-113.656,-3.612,-113.994,-3.927,-114.167C-3.927,-114.167,-74.94,-154.103,-74.94,-154.103C-74.94,-154.103,-14.455,-189.406,-14.455,-189.406C-14.455,-189.406,-15.484,-191.166,-15.484,-191.166Z" /></g><g id="i75" transform="matrix(1,0,0,1,-3039.046,565.089)"><path fill="url(#i11)" d="M7.006,-3.453C7.006,0.726,4.154,5.646,0.51,7.75C-0.59,8.385,-1.666,8.71,-2.686,8.71C-5.27,8.71,-7.006,6.596,-7.006,3.455C-7.006,-0.726,-4.153,-5.648,-0.512,-7.752C0.588,-8.387,1.664,-8.71,2.684,-8.71C5.268,-8.71,7.006,-6.598,7.006,-3.453ZM-0.512,5.981C2.454,4.266,4.964,-0.053,4.964,-3.453C4.964,-5.466,4.11,-6.668,2.684,-6.668C2.037,-6.668,1.287,-6.431,0.51,-5.984C-2.456,-4.267,-4.963,0.053,-4.963,3.455C-4.963,5.466,-4.11,6.666,-2.686,6.666C-2.041,6.666,-1.289,6.428,-0.512,5.981Z" /></g><g id="i76" transform="matrix(1,0,0,1,-3166.052,518.722)"><path fill="url(#i12)" d="M7.004,-3.453C7.004,0.728,4.151,5.648,0.508,7.75C-0.592,8.387,-1.668,8.708,-2.686,8.708C-5.309,8.708,-7.004,6.645,-7.004,3.455C-7.004,-0.726,-4.151,-5.648,-0.512,-7.75C0.588,-8.385,1.664,-8.708,2.684,-8.708C5.266,-8.708,7.004,-6.598,7.004,-3.453ZM-0.512,5.981C2.454,4.269,4.959,-0.053,4.959,-3.453C4.959,-5.464,4.11,-6.666,2.684,-6.666C2.037,-6.666,1.285,-6.428,0.508,-5.981C-2.455,-4.269,-4.961,0.051,-4.961,3.455C-4.961,5.464,-4.112,6.666,-2.686,6.666C-2.039,6.666,-1.289,6.428,-0.512,5.981Z" /></g><g id="i77" transform="matrix(1,0,0,1,-3002.405,517.426)"><path fill="url(#i13)" d="M7.004,-3.456C7.004,0.725,4.149,5.647,0.51,7.751C-0.593,8.386,-1.668,8.709,-2.686,8.709C-5.307,8.709,-7.004,6.646,-7.004,3.456C-7.004,-0.725,-4.151,-5.649,-0.512,-7.751C0.591,-8.386,1.664,-8.709,2.684,-8.709C5.268,-8.709,7.004,-6.597,7.004,-3.456ZM-0.512,5.983C2.456,4.268,4.962,-0.054,4.962,-3.456C4.962,-5.465,4.106,-6.667,2.684,-6.667C2.037,-6.667,1.287,-6.43,0.51,-5.983C-2.456,-4.268,-4.961,0.052,-4.961,3.456C-4.961,5.465,-4.112,6.667,-2.686,6.667C-2.039,6.667,-1.289,6.43,-0.512,5.983Z" /></g><g id="i78" transform="matrix(1,0,0,1,-2966.136,604.482)"><path fill="url(#i14)" d="M7.005,-3.453C7.005,0.728,4.152,5.65,0.513,7.75C-0.59,8.387,-1.665,8.708,-2.685,8.708C-5.269,8.708,-7.005,6.6,-7.005,3.455C-7.005,-0.726,-4.15,-5.648,-0.511,-7.75C0.592,-8.385,1.665,-8.708,2.687,-8.708C5.269,-8.708,7.005,-6.596,7.005,-3.453ZM-0.511,5.981C2.457,4.269,4.96,-0.053,4.96,-3.453C4.96,-5.464,4.109,-6.666,2.687,-6.666C2.04,-6.666,1.288,-6.429,0.513,-5.982C-2.457,-4.269,-4.96,0.053,-4.96,3.455C-4.96,5.464,-4.109,6.666,-2.685,6.666C-2.038,6.666,-1.284,6.428,-0.511,5.981Z" /></g><g id="i79" transform="matrix(1,0,0,1,-2921.23,555.481)"><path fill="url(#i15)" d="M7.004,-3.454C7.004,0.727,4.151,5.649,0.512,7.749C-0.588,8.386,-1.664,8.709,-2.684,8.709C-5.268,8.709,-7.004,6.597,-7.004,3.454C-7.004,-0.727,-4.151,-5.649,-0.51,-7.751C0.592,-8.386,1.668,-8.709,2.686,-8.709C5.309,-8.709,7.004,-6.646,7.004,-3.454ZM-0.51,5.982C2.456,4.269,4.962,-0.052,4.962,-3.454C4.962,-5.465,4.11,-6.665,2.686,-6.665C2.037,-6.665,1.289,-6.43,0.512,-5.983C-2.456,-4.268,-4.961,0.054,-4.961,3.454C-4.961,5.465,-4.112,6.667,-2.684,6.667C-2.039,6.667,-1.285,6.427,-0.51,5.982Z" /></g><g id="i80" transform="matrix(1,0,0,1,-3021.835,473.484)"><path fill="url(#i16)" d="M7.005,-3.456C7.005,0.723,4.152,5.647,0.509,7.751C-0.594,8.388,-1.667,8.709,-2.687,8.709C-5.271,8.709,-7.005,6.596,-7.005,3.456C-7.005,-0.723,-4.152,-5.647,-0.513,-7.751C0.587,-8.386,1.663,-8.709,2.683,-8.709C5.267,-8.709,7.005,-6.599,7.005,-3.456ZM-0.513,5.982C2.455,4.27,4.96,-0.054,4.96,-3.456C4.96,-5.465,4.109,-6.667,2.683,-6.667C2.036,-6.667,1.284,-6.43,0.509,-5.985C-2.459,-4.266,-4.962,0.054,-4.962,3.456C-4.962,5.465,-4.111,6.667,-2.687,6.667C-2.04,6.667,-1.29,6.429,-0.513,5.982Z" /></g><g id="i81" transform="matrix(1,0,0,1,-2877.972,517.007)"><path fill="url(#i17)" d="M7.004,-3.455C7.004,0.726,4.149,5.648,0.51,7.752C-0.59,8.387,-1.666,8.71,-2.684,8.71C-5.268,8.71,-7.004,6.598,-7.004,3.455C-7.004,-0.724,-4.151,-5.648,-0.51,-7.75C0.59,-8.385,1.666,-8.71,2.686,-8.71C5.268,-8.71,7.004,-6.598,7.004,-3.455ZM-0.51,5.984C2.456,4.269,4.963,-0.053,4.963,-3.455C4.963,-5.464,4.108,-6.666,2.686,-6.666C2.037,-6.666,1.289,-6.429,0.51,-5.984C-2.456,-4.267,-4.962,0.055,-4.962,3.455C-4.962,5.466,-4.108,6.666,-2.684,6.666C-2.037,6.666,-1.287,6.429,-0.51,5.984Z" /></g><g id="i82" transform="matrix(1,0,0,1,-2826.236,547.918)"><path fill="url(#i18)" d="M7.004,-3.454C7.004,0.727,4.151,5.649,0.512,7.751C-0.588,8.386,-1.664,8.709,-2.686,8.709C-5.268,8.709,-7.004,6.597,-7.004,3.454C-7.004,-0.727,-4.151,-5.649,-0.512,-7.749C0.591,-8.386,1.664,-8.709,2.684,-8.709C5.268,-8.709,7.004,-6.597,7.004,-3.454ZM-0.512,5.982C2.456,4.267,4.961,-0.052,4.961,-3.454C4.961,-5.463,4.11,-6.665,2.684,-6.665C2.039,-6.665,1.287,-6.428,0.512,-5.981C-2.458,-4.268,-4.962,0.054,-4.962,3.454C-4.962,5.465,-4.108,6.667,-2.686,6.667C-2.039,6.667,-1.285,6.429,-0.512,5.982Z" /></g><g id="i83" transform="matrix(1,0,0,1,-2741.605,418.53)"><path fill="url(#i19)" d="M7.004,-3.455C7.004,0.724,4.151,5.648,0.51,7.752C-0.59,8.387,-1.666,8.71,-2.684,8.71C-5.268,8.71,-7.004,6.598,-7.004,3.455C-7.004,-0.726,-4.151,-5.648,-0.51,-7.75C0.59,-8.385,1.666,-8.71,2.686,-8.71C5.268,-8.71,7.004,-6.598,7.004,-3.455ZM-0.51,5.981C2.456,4.266,4.961,-0.055,4.961,-3.455C4.961,-5.464,4.108,-6.666,2.686,-6.666C2.039,-6.666,1.287,-6.429,0.51,-5.984C-2.456,-4.269,-4.962,0.053,-4.962,3.455C-4.962,5.466,-4.108,6.668,-2.684,6.668C-2.039,6.668,-1.287,6.428,-0.51,5.981Z" /></g><g id="i84" transform="matrix(1,0,0,1,-2720.446,321.494)"><path fill="url(#i20)" d="M7.005,-3.454C7.005,0.725,4.148,5.647,0.507,7.749C-0.593,8.384,-1.669,8.709,-2.687,8.709C-5.269,8.709,-7.005,6.594,-7.005,3.454C-7.005,-0.725,-4.152,-5.651,-0.511,-7.749C0.589,-8.386,1.665,-8.709,2.683,-8.709C5.306,-8.709,7.005,-6.646,7.005,-3.454ZM-0.511,5.98C2.452,4.27,4.958,-0.05,4.958,-3.454C4.958,-5.465,4.109,-6.665,2.683,-6.665C2.036,-6.665,1.284,-6.429,0.507,-5.98C-2.456,-4.265,-4.962,0.054,-4.962,3.454C-4.962,5.465,-4.113,6.664,-2.687,6.664C-2.04,6.664,-1.288,6.427,-0.511,5.98Z" /></g><g id="i85" transform="matrix(1,0,0,1,-2759.362,-1.674)"><path fill="url(#i21)" d="M6.491,-4.317C8.404,-3.212,9.455,-1.678,9.455,-0.005C9.455,1.681,8.389,3.222,6.456,4.343C2.953,6.367,-3.011,6.374,-6.494,4.363C-8.404,3.258,-9.455,1.729,-9.455,0.052C-9.455,-1.634,-8.392,-3.179,-6.459,-4.292C-4.699,-5.31,-2.388,-5.866,0.052,-5.866C2.469,-5.866,4.76,-5.314,6.491,-4.317ZM5.436,2.57C6.693,1.845,7.411,0.906,7.411,-0.005C7.411,-0.92,6.722,-1.823,5.469,-2.549C2.598,-4.206,-2.545,-4.193,-5.436,-2.528C-6.693,-1.798,-7.415,-0.859,-7.415,0.052C-7.415,0.967,-6.726,1.87,-5.473,2.595C-4.043,3.419,-2.122,3.873,-0.053,3.873C2.032,3.873,3.983,3.411,5.436,2.57Z" /></g><g id="i86" transform="matrix(1,0,0,1,-2899.803,33.075)"><path fill="url(#i22)" d="M6.496,-4.312C8.406,-3.212,9.457,-1.682,9.457,-0.005C9.457,1.681,8.394,3.227,6.457,4.344C2.96,6.364,-3.009,6.375,-6.496,4.364C-8.406,3.264,-9.457,1.734,-9.457,0.057C-9.457,-1.629,-8.39,-3.174,-6.457,-4.291C-4.699,-5.305,-2.386,-5.865,0.054,-5.865C2.473,-5.865,4.761,-5.314,6.496,-4.312ZM5.436,2.576C6.691,1.85,7.415,0.91,7.415,-0.005C7.415,-0.92,6.724,-1.823,5.473,-2.544C2.602,-4.201,-2.545,-4.188,-5.434,-2.523C-6.691,-1.793,-7.413,-0.858,-7.413,0.057C-7.413,0.972,-6.724,1.871,-5.471,2.596C-4.045,3.42,-2.12,3.874,-0.051,3.874C2.039,3.874,3.981,3.413,5.436,2.576Z" /></g><g id="i87" transform="matrix(1,0,0,1,-2939.633,100.971)"><path fill="url(#i23)" d="M6.495,-4.313C8.405,-3.208,9.456,-1.679,9.456,-0.006C9.456,1.68,8.39,3.226,6.457,4.343C2.954,6.363,-3.01,6.378,-6.493,4.367C-8.403,3.262,-9.456,1.729,-9.456,0.056C-9.456,-1.634,-8.388,-3.175,-6.455,-4.292C-4.697,-5.306,-2.385,-5.867,0.055,-5.867C2.474,-5.867,4.76,-5.315,6.495,-4.313ZM5.437,2.574C6.694,1.848,7.416,0.905,7.416,-0.006C7.416,-0.921,6.723,-1.819,5.472,-2.545C2.601,-4.202,-2.544,-4.193,-5.435,-2.524C-6.692,-1.799,-7.414,-0.859,-7.414,0.056C-7.414,0.967,-6.721,1.874,-5.47,2.595C-4.042,3.419,-2.119,3.877,-0.052,3.877C2.034,3.877,3.982,3.415,5.437,2.574Z" /></g><g id="i88" transform="matrix(1,0,0,1,-2949.951,-23.704)"><path fill="url(#i24)" d="M6.494,-4.316C8.406,-3.211,9.455,-1.683,9.455,-0.005C9.455,1.681,8.389,3.223,6.456,4.344C2.955,6.364,-3.009,6.375,-6.494,4.364C-8.404,3.259,-9.455,1.73,-9.455,0.053C-9.455,-1.633,-8.39,-3.178,-6.459,-4.291C-4.697,-5.305,-2.387,-5.866,0.053,-5.866C2.472,-5.866,4.759,-5.314,6.494,-4.316ZM5.436,2.571C6.693,1.85,7.413,0.906,7.413,-0.005C7.413,-0.92,6.724,-1.823,5.471,-2.544C2.6,-4.205,-2.545,-4.192,-5.434,-2.523C-6.693,-1.797,-7.413,-0.858,-7.413,0.053C-7.413,0.968,-6.724,1.87,-5.471,2.596C-4.043,3.42,-2.119,3.874,-0.056,3.874C2.031,3.874,3.983,3.412,5.436,2.571Z" /></g><g id="i89" transform="matrix(1,0,0,1,-3088.343,-3.278)"><path fill="url(#i25)" d="M6.491,-4.312C8.404,-3.212,9.455,-1.677,9.455,-0.004C9.455,1.682,8.389,3.227,6.456,4.34C2.953,6.364,-3.011,6.376,-6.494,4.365C-8.404,3.26,-9.455,1.727,-9.455,0.049C-9.455,-1.632,-8.392,-3.178,-6.459,-4.291C-4.699,-5.305,-2.388,-5.865,0.054,-5.865C2.469,-5.865,4.76,-5.318,6.491,-4.312ZM5.436,2.576C6.691,1.846,7.411,0.907,7.411,-0.004C7.411,-0.923,6.724,-1.822,5.471,-2.547C2.598,-4.2,-2.545,-4.192,-5.436,-2.523C-6.691,-1.798,-7.415,-0.862,-7.415,0.057C-7.415,0.968,-6.726,1.87,-5.473,2.596C-4.043,3.42,-2.122,3.87,-0.053,3.87C2.033,3.87,3.983,3.413,5.436,2.576Z" /></g><g id="i90" transform="matrix(1,0,0,1,-3124.839,69.308)"><path fill="url(#i26)" d="M6.495,-4.312C8.403,-3.207,9.456,-1.678,9.456,-0.005C9.456,1.681,8.39,3.227,6.457,4.344C2.954,6.364,-3.01,6.375,-6.493,4.364C-8.406,3.264,-9.456,1.73,-9.456,0.053C-9.456,-1.629,-8.39,-3.174,-6.455,-4.291C-4.699,-5.305,-2.386,-5.866,0.052,-5.866C2.474,-5.866,4.76,-5.314,6.495,-4.312ZM5.435,2.579C6.692,1.845,7.416,0.91,7.416,-0.005C7.416,-0.92,6.726,-1.818,5.475,-2.544C2.604,-4.205,-2.544,-4.192,-5.435,-2.523C-6.69,-1.798,-7.412,-0.858,-7.412,0.057C-7.412,0.972,-6.725,1.875,-5.47,2.6C-4.044,3.424,-2.122,3.874,-0.055,3.874C2.032,3.874,3.984,3.412,5.435,2.579Z" /></g><g id="i91" transform="matrix(1,0,0,1,-3256.51,22.412)"><path fill="url(#i27)" d="M6.494,-4.312C8.404,-3.212,9.457,-1.681,9.457,-0.005C9.457,1.681,8.389,3.226,6.456,4.341C2.957,6.363,-3.007,6.373,-6.494,4.362C-8.407,3.262,-9.457,1.732,-9.457,0.057C-9.457,-1.631,-8.391,-3.176,-6.456,-4.289C-4.698,-5.307,-2.387,-5.864,0.053,-5.864C2.47,-5.864,4.763,-5.314,6.494,-4.312ZM5.434,2.575C6.691,1.848,7.413,0.908,7.413,-0.005C7.413,-0.92,6.724,-1.823,5.473,-2.546C2.6,-4.201,-2.541,-4.19,-5.434,-2.523C-6.695,-1.797,-7.415,-0.856,-7.415,0.057C-7.415,0.97,-6.726,1.872,-5.471,2.598C-4.045,3.42,-2.121,3.875,-0.052,3.875C2.034,3.875,3.983,3.412,5.434,2.575Z" /></g><g id="i92" transform="matrix(1,0,0,1,-3089.875,129.391)"><path fill="url(#i28)" d="M6.492,-4.315C8.402,-3.215,9.453,-1.681,9.457,-0.008C9.457,1.678,8.392,3.228,6.455,4.341C2.952,6.365,-3.012,6.372,-6.495,4.361C-8.405,3.261,-9.457,1.732,-9.457,0.059C-9.457,-1.631,-8.393,-3.177,-6.456,-4.294C-4.7,-5.308,-2.389,-5.864,0.049,-5.864C2.468,-5.864,4.759,-5.317,6.492,-4.315ZM5.432,2.573C6.691,1.847,7.413,0.907,7.413,-0.008C7.413,-0.923,6.722,-1.821,5.469,-2.542C2.598,-4.203,-2.545,-4.195,-5.436,-2.526C-6.693,-1.796,-7.415,-0.856,-7.415,0.059C-7.415,0.97,-6.726,1.872,-5.475,2.597C-4.045,3.417,-2.125,3.871,-0.056,3.871C2.03,3.871,3.981,3.41,5.432,2.573Z" /></g><g id="i64" transform="matrix(1,0,0,1,-3318.329,139.156)"><path fill="url(#i29)" d="M6.495,-4.31C8.403,-3.21,9.456,-1.682,9.456,-0.005C9.456,1.681,8.39,3.226,6.455,4.341C2.954,6.365,-3.01,6.375,-6.495,4.362C-8.405,3.262,-9.456,1.733,-9.456,0.057C-9.456,-1.631,-8.39,-3.176,-6.455,-4.289C-4.697,-5.307,-2.387,-5.866,0.053,-5.866C2.472,-5.866,4.758,-5.314,6.495,-4.31ZM5.435,2.573C6.69,1.848,7.414,0.91,7.414,-0.005C7.414,-0.922,6.723,-1.823,5.47,-2.546C2.601,-4.201,-2.544,-4.19,-5.435,-2.523C-6.694,-1.796,-7.416,-0.858,-7.416,0.057C-7.416,0.97,-6.725,1.873,-5.474,2.596C-4.046,3.418,-2.118,3.876,-0.053,3.876C2.033,3.876,3.982,3.412,5.435,2.573Z" /></g><g id="i62" transform="matrix(1,0,0,1,-3340.728,267.011)"><path fill="url(#i30)" d="M6.495,-4.311C8.405,-3.211,9.456,-1.681,9.456,-0.005C9.456,1.683,8.39,3.226,6.457,4.341C2.954,6.365,-3.014,6.372,-6.493,4.363C-8.403,3.263,-9.456,1.734,-9.456,0.058C-9.456,-1.628,-8.392,-3.175,-6.455,-4.292C-4.697,-5.308,-2.387,-5.864,0.053,-5.864C2.472,-5.864,4.762,-5.317,6.495,-4.311ZM5.435,2.572C6.692,1.849,7.414,0.91,7.414,-0.005C7.414,-0.918,6.725,-1.821,5.472,-2.546C2.603,-4.199,-2.544,-4.191,-5.435,-2.522C-6.692,-1.797,-7.414,-0.857,-7.414,0.058C-7.414,0.973,-6.724,1.874,-5.475,2.595C-4.045,3.419,-2.118,3.873,-0.053,3.873C2.033,3.873,3.984,3.413,5.435,2.572Z" /></g></g></g></g></g><g opacity="0.39" id="i93"><g transform="translate(1218.363,372.723)"><animateTransform repeatCount="indefinite" type="translate" attributeName="transform" dur="10.01s" begin="0s" calcMode="spline" values="1218.363 372.723; 1198.363 392.723; 1178.363 372.723; 1198.363 352.723; 1218.363 372.723; 1218.363 372.723" keyTimes="0; 0.250126; 0.493333; 0.736667; 0.98; 1" keySplines="0.333 0 0.833 0.828; 0.167 0.162 0.833 0.833; 0.167 0.167 0.833 0.836; 0.167 0.169 0.667 1; 0 0 1 1" fill="freeze" /><g transform="scale(-1,1) translate(2991.637,-306.723)"><g id="i64" transform="matrix(1,0,0,1,0,0)"><g id="i65" transform="matrix(1,0,0,1,-2972.83,255.498)"><path fill="url(#i31)" d="M-111.038,-256.76C-111.038,-256.76,-112.058,-254.988,-112.058,-254.988C-112.058,-254.988,18.902,-179.015,18.902,-179.015C18.902,-179.015,-119.47,-98.722,-119.47,-98.722C-119.787,-98.541,-119.981,-98.199,-119.979,-97.828C-119.977,-97.465,-119.779,-97.123,-119.458,-96.946C-119.458,-96.946,29.85,-13.286,29.85,-13.286C29.85,-13.286,29.85,100.107,29.85,100.107C29.85,100.474,30.049,100.812,30.366,100.993C30.685,101.178,31.077,101.175,31.392,100.985C31.392,100.985,117.937,50.079,117.937,50.079C117.937,50.079,117.937,198.44,117.937,198.44C117.937,198.44,94.314,213.733,94.314,213.733C94.015,213.918,93.838,214.246,93.838,214.596C93.838,214.596,93.838,256.76,93.838,256.76C93.838,256.76,95.878,256.76,95.878,256.76C95.878,256.76,95.878,215.161,95.878,215.161C95.878,215.161,119.499,199.868,119.499,199.868C119.8,199.681,119.979,199.355,119.979,199.003C119.979,199.003,119.979,48.295,119.979,48.295C119.979,47.928,119.785,47.59,119.466,47.409C119.149,47.228,118.761,47.228,118.44,47.413C118.44,47.413,31.895,98.322,31.895,98.322C31.895,98.322,31.895,-13.884,31.895,-13.884C31.895,-14.255,31.695,-14.597,31.371,-14.778C31.371,-14.778,-116.896,-97.853,-116.896,-97.853C-116.896,-97.853,21.453,-178.133,21.453,-178.133C21.768,-178.314,21.962,-178.648,21.962,-179.015C21.962,-179.378,21.766,-179.716,21.451,-179.901C21.451,-179.901,-111.038,-256.76,-111.038,-256.76Z" /></g><g id="i66" transform="matrix(1,0,0,1,-2911.841,214.385)"><path fill="url(#i32)" d="M-43.644,-236.256C-43.644,-236.256,-165.073,-165.484,-165.073,-165.484C-165.382,-165.303,-165.578,-164.965,-165.578,-164.602C-165.578,-164.239,-165.382,-163.905,-165.073,-163.72C-165.073,-163.72,-11.63,-73.795,-11.63,-73.795C-11.306,-73.597,-10.908,-73.61,-10.591,-73.8C-10.591,-73.8,47.624,-108.899,47.624,-108.899C47.624,-108.899,126.035,-64.58,126.035,-64.58C126.035,-64.58,126.035,-17.977,126.035,-17.977C126.035,-17.977,86.828,4.181,86.828,4.181C86.509,4.362,86.311,4.7,86.311,5.071C86.311,5.071,86.311,94.586,86.311,94.586C86.311,94.947,86.501,95.281,86.81,95.466C87.119,95.651,87.503,95.653,87.82,95.484C87.82,95.484,116.537,79.898,116.537,79.898C116.537,79.898,116.537,235.235,116.537,235.235C116.537,235.604,116.737,235.942,117.056,236.123C117.373,236.304,117.767,236.301,118.084,236.111C118.084,236.111,165.578,207.612,165.578,207.612C165.578,207.612,164.529,205.86,164.529,205.86C164.529,205.86,118.579,233.432,118.579,233.432C118.579,233.432,118.579,78.18,118.579,78.18C118.579,77.819,118.391,77.486,118.08,77.302C117.769,77.117,117.388,77.112,117.073,77.281C117.073,77.281,88.355,92.869,88.355,92.869C88.355,92.869,88.355,5.665,88.355,5.665C88.355,5.665,127.56,-16.493,127.56,-16.493C127.881,-16.674,128.081,-17.012,128.081,-17.379C128.081,-17.379,128.081,-65.177,128.081,-65.177C128.081,-65.544,127.881,-65.883,127.56,-66.068C127.56,-66.068,48.11,-110.972,48.11,-110.972C47.791,-111.149,47.395,-111.145,47.08,-110.956C47.08,-110.956,-11.123,-75.865,-11.123,-75.865C-11.123,-75.865,-162.528,-164.602,-162.528,-164.602C-162.528,-164.602,-42.612,-234.492,-42.612,-234.492C-42.612,-234.492,-43.644,-236.256,-43.644,-236.256Z" /></g><g id="i67" transform="matrix(1,0,0,1,-2844.498,271.306)"><path fill="url(#i33)" d="M79.314,-271.431C79.314,-271.431,-21.113,-212.789,-21.113,-212.789C-21.432,-212.604,-21.626,-212.266,-21.622,-211.899C-21.618,-211.532,-21.415,-211.194,-21.098,-211.017C-21.098,-211.017,57.647,-166.99,57.647,-166.99C57.647,-166.99,-79.835,-87.571,-79.835,-87.571C-80.154,-87.386,-80.35,-87.044,-80.344,-86.673C-80.338,-86.306,-80.136,-85.968,-79.81,-85.791C-79.81,-85.791,-38.891,-63.629,-38.891,-63.629C-38.891,-63.629,-38.891,157.651,-38.891,157.651C-38.891,158.018,-38.695,158.356,-38.378,158.537C-38.059,158.718,-37.672,158.714,-37.35,158.529C-37.35,158.529,18.104,125.75,18.104,125.75C18.104,125.75,18.104,271.431,18.104,271.431C18.104,271.431,20.149,271.431,20.149,271.431C20.149,271.431,20.149,123.957,20.149,123.957C20.149,123.59,19.948,123.252,19.631,123.071C19.312,122.89,18.927,122.894,18.605,123.079C18.605,123.079,-36.851,155.86,-36.851,155.86C-36.851,155.86,-36.851,-64.235,-36.851,-64.235C-36.851,-64.61,-37.053,-64.956,-37.383,-65.133C-37.383,-65.133,-77.232,-86.714,-77.232,-86.714C-77.232,-86.714,60.225,-166.116,60.225,-166.116C60.546,-166.301,60.738,-166.64,60.738,-167.011C60.734,-167.378,60.534,-167.716,60.212,-167.893C60.212,-167.893,-18.541,-211.928,-18.541,-211.928C-18.541,-211.928,80.344,-269.671,80.344,-269.671C80.344,-269.671,79.314,-271.431,79.314,-271.431Z" /></g><g id="i68" transform="matrix(1,0,0,1,-3019.867,335.382)"><path fill="url(#i34)" d="M-101.37,-263.487C-101.37,-263.487,-102.364,-261.702,-102.364,-261.702C-102.364,-261.702,56.826,-173.208,56.826,-173.208C56.826,-173.208,-43.495,-116.247,-43.495,-116.247C-43.817,-116.066,-44.014,-115.72,-44.01,-115.349C-44.01,-114.982,-43.809,-114.64,-43.481,-114.463C-43.481,-114.463,36.303,-70.712,36.303,-70.712C36.303,-70.712,36.303,-14.469,36.303,-14.469C36.303,-14.104,36.499,-13.764,36.814,-13.583C37.133,-13.406,37.525,-13.402,37.838,-13.587C37.838,-13.587,100.321,-50.042,100.321,-50.042C100.321,-50.042,100.321,109.222,100.321,109.222C100.321,109.222,54.081,136.074,54.081,136.074C53.766,136.257,53.572,136.593,53.572,136.956C53.572,136.956,53.572,263.487,53.572,263.487C53.572,263.487,55.619,263.487,55.619,263.487C55.619,263.487,55.619,137.546,55.619,137.546C55.619,137.546,101.855,110.696,101.855,110.696C102.17,110.511,102.364,110.174,102.364,109.811C102.364,109.811,102.364,-51.823,102.364,-51.823C102.364,-52.19,102.167,-52.528,101.85,-52.709C101.533,-52.89,101.143,-52.89,100.826,-52.705C100.826,-52.705,38.345,-16.249,38.345,-16.249C38.345,-16.249,38.345,-71.318,38.345,-71.318C38.345,-71.689,38.144,-72.031,37.816,-72.212C37.816,-72.212,-40.894,-115.374,-40.894,-115.374C-40.894,-115.374,59.417,-172.33,59.417,-172.33C59.739,-172.511,59.936,-172.849,59.934,-173.224C59.932,-173.591,59.73,-173.933,59.408,-174.114C59.408,-174.114,-101.37,-263.487,-101.37,-263.487Z" /></g><g id="i69" transform="matrix(1,0,0,1,-2823.934,184.529)"><path fill="url(#i35)" d="M-81.457,-149.3C-81.457,-149.3,-99.592,-137.207,-99.592,-137.207C-99.887,-137.009,-100.057,-136.675,-100.045,-136.321C-100.033,-135.966,-99.835,-135.645,-99.526,-135.468C-99.526,-135.468,-41.471,-102.651,-41.471,-102.651C-41.471,-102.651,-80.55,-79.377,-80.55,-79.377C-80.863,-79.187,-81.054,-78.845,-81.046,-78.478C-81.038,-78.111,-80.834,-77.773,-80.513,-77.6C-80.513,-77.6,-2.613,-35.263,-2.613,-35.263C-2.613,-35.263,-41.7,-11.144,-41.7,-11.144C-42.015,-10.95,-42.198,-10.604,-42.186,-10.237C-42.17,-9.87,-41.962,-9.537,-41.634,-9.368C-41.634,-9.368,-20.593,1.571,-20.593,1.571C-20.593,1.571,-20.593,77.326,-20.593,77.326C-20.593,77.697,-20.397,78.035,-20.078,78.212C-19.757,78.397,-19.363,78.394,-19.05,78.204C-19.05,78.204,77.851,20.403,77.851,20.403C77.851,20.403,77.851,148.279,77.851,148.279C77.851,148.629,78.032,148.959,78.329,149.144C78.63,149.329,79.001,149.351,79.318,149.198C79.318,149.198,100.046,139.179,100.046,139.179C100.046,139.179,99.155,137.342,99.155,137.342C99.155,137.342,79.895,146.651,79.895,146.651C79.895,146.651,79.895,18.602,79.895,18.602C79.895,18.235,79.695,17.896,79.376,17.715C79.057,17.53,78.663,17.539,78.35,17.728C78.35,17.728,-18.553,75.529,-18.553,75.529C-18.553,75.529,-18.553,0.949,-18.553,0.949C-18.553,0.57,-18.765,0.219,-19.103,0.046C-19.103,0.046,-39.095,-10.353,-39.095,-10.353C-39.095,-10.353,-0.039,-34.451,-0.039,-34.451C0.27,-34.645,0.455,-34.983,0.447,-35.346C0.435,-35.713,0.234,-36.043,-0.088,-36.216C-0.088,-36.216,-77.961,-78.536,-77.961,-78.536C-77.961,-78.536,-38.914,-101.798,-38.914,-101.798C-38.599,-101.987,-38.411,-102.326,-38.415,-102.689C-38.419,-103.052,-38.617,-103.385,-38.934,-103.566C-38.934,-103.566,-97.075,-136.432,-97.075,-136.432C-97.075,-136.432,-80.323,-147.601,-80.323,-147.601C-80.323,-147.601,-81.457,-149.3,-81.457,-149.3Z" /></g><g id="i70" transform="matrix(1,0,0,1,-3178.716,305.028)"><path fill="url(#i36)" d="M-134.834,-163.706C-134.834,-163.706,-135.848,-161.93,-135.848,-161.93C-135.848,-161.93,-98.911,-140.625,-98.911,-140.625C-98.911,-140.625,-157.821,-106.798,-157.821,-106.798C-158.14,-106.613,-158.336,-106.272,-158.334,-105.907C-158.332,-105.538,-158.133,-105.202,-157.814,-105.021C-157.814,-105.021,78.577,28.18,78.577,28.18C78.577,28.18,78.577,141.575,78.577,141.575C78.577,141.938,78.771,142.276,79.088,142.459C79.401,142.64,79.789,142.645,80.106,142.464C80.106,142.464,156.292,98.97,156.292,98.97C156.292,98.97,156.292,163.706,156.292,163.706C156.292,163.706,158.334,163.706,158.334,163.706C158.334,163.706,158.334,97.211,158.334,97.211C158.334,96.848,158.138,96.512,157.823,96.329C157.51,96.146,157.122,96.141,156.805,96.322C156.805,96.322,80.621,139.818,80.621,139.818C80.621,139.818,80.621,27.583,80.621,27.583C80.621,27.216,80.421,26.877,80.102,26.694C80.102,26.694,-155.249,-105.918,-155.249,-105.918C-155.249,-105.918,-96.345,-139.741,-96.345,-139.741C-96.028,-139.922,-95.832,-140.263,-95.832,-140.628C-95.832,-140.993,-96.032,-141.331,-96.349,-141.514C-96.349,-141.514,-134.834,-163.706,-134.834,-163.706Z" /></g><g id="i71" transform="matrix(1,0,0,1,-3086.371,287.382)"><path fill="url(#i37)" d="M-165.03,-262.916C-165.03,-262.916,-166.164,-261.218,-166.164,-261.218C-166.164,-261.218,-51.819,-184.925,-51.819,-184.925C-51.819,-184.925,-133.286,-138.737,-133.286,-138.737C-133.603,-138.558,-133.801,-138.224,-133.805,-137.859C-133.809,-137.496,-133.62,-137.156,-133.307,-136.971C-133.307,-136.971,-36.946,-79.627,-36.946,-79.627C-36.631,-79.442,-36.239,-79.438,-35.918,-79.619C-35.918,-79.619,33.375,-119.503,33.375,-119.503C33.375,-119.503,154.473,-51.345,154.473,-51.345C154.473,-51.345,154.473,17.399,154.473,17.399C154.473,17.399,104.216,44.33,104.216,44.33C103.886,44.509,103.678,44.853,103.678,45.228C103.678,45.228,103.678,112.589,103.678,112.589C103.678,112.95,103.868,113.282,104.179,113.467C104.488,113.648,104.87,113.657,105.185,113.486C105.185,113.486,133.904,97.896,133.904,97.896C133.904,97.896,133.904,254.281,133.904,254.281C133.904,254.648,134.102,254.988,134.423,255.171C134.743,255.348,135.137,255.349,135.45,255.157C135.45,255.157,164.117,237.949,164.117,237.949C164.117,237.949,164.117,262.916,164.117,262.916C164.117,262.916,166.164,262.916,166.164,262.916C166.164,262.916,166.164,236.146,166.164,236.146C166.164,235.779,165.964,235.437,165.645,235.256C165.323,235.077,164.931,235.078,164.618,235.27C164.618,235.27,135.944,252.478,135.944,252.478C135.944,252.478,135.944,96.179,135.944,96.179C135.944,95.82,135.757,95.486,135.45,95.301C135.137,95.12,134.755,95.112,134.44,95.285C134.44,95.285,105.723,110.869,105.723,110.869C105.723,110.869,105.723,45.842,105.723,45.842C105.723,45.842,155.977,18.912,155.977,18.912C156.309,18.735,156.517,18.386,156.517,18.009C156.517,18.009,156.517,-51.942,156.517,-51.942C156.517,-52.309,156.317,-52.648,155.996,-52.829C155.996,-52.829,33.869,-121.568,33.869,-121.568C33.556,-121.745,33.172,-121.741,32.859,-121.564C32.859,-121.564,-36.416,-81.692,-36.416,-81.692C-36.416,-81.692,-130.751,-137.826,-130.751,-137.826C-130.751,-137.826,-49.366,-183.965,-49.366,-183.965C-49.061,-184.142,-48.865,-184.464,-48.851,-184.814C-48.839,-185.169,-49.01,-185.506,-49.307,-185.704C-49.307,-185.704,-165.03,-262.916,-165.03,-262.916Z" /></g><g id="i72" transform="matrix(1,0,0,1,-3011.464,331.979)"><path fill="url(#i38)" d="M67.276,-228.236C67.276,-228.236,-11.309,-182.461,-11.309,-182.461C-11.626,-182.28,-11.82,-181.942,-11.816,-181.575C-11.812,-181.208,-11.611,-180.87,-11.292,-180.689C-11.292,-180.689,67.451,-136.662,67.451,-136.662C67.451,-136.662,-70.029,-57.248,-70.029,-57.248C-70.348,-57.063,-70.544,-56.716,-70.54,-56.349C-70.536,-55.978,-70.33,-55.64,-70.004,-55.465C-70.004,-55.465,-29.087,-33.301,-29.087,-33.301C-29.087,-33.301,-29.087,228.236,-29.087,228.236C-29.087,228.236,-27.045,228.236,-27.045,228.236C-27.045,228.236,-27.045,-33.911,-27.045,-33.911C-27.045,-34.286,-27.251,-34.629,-27.581,-34.81C-27.581,-34.81,-67.426,-56.391,-67.426,-56.391C-67.426,-56.391,70.031,-135.793,70.031,-135.793C70.348,-135.974,70.542,-136.316,70.54,-136.683C70.538,-137.05,70.337,-137.388,70.018,-137.569C70.018,-137.569,-8.733,-181.6,-8.733,-181.6C-8.733,-181.6,68.306,-226.472,68.306,-226.472C68.306,-226.472,67.276,-228.236,67.276,-228.236Z" /></g><g id="i73" transform="matrix(1,0,0,1,-3208.613,366.312)"><path fill="url(#i39)" d="M-51.977,-148.549C-52.158,-148.549,-52.338,-148.5,-52.499,-148.407C-52.499,-148.407,-128.651,-102.867,-128.651,-102.867C-128.651,-102.867,-127.611,-101.11,-127.611,-101.11C-127.611,-101.11,-51.961,-146.35,-51.961,-146.35C-51.961,-146.35,47.017,-91.364,47.017,-91.364C47.017,-91.364,-11.926,-56.168,-11.926,-56.168C-12.243,-55.978,-12.431,-55.635,-12.425,-55.27C-12.421,-54.903,-12.216,-54.567,-11.897,-54.394C-11.897,-54.394,67.887,-10.643,67.887,-10.643C67.887,-10.643,67.887,35.387,67.887,35.387C67.887,35.754,68.083,36.092,68.4,36.273C68.717,36.458,69.102,36.453,69.426,36.267C69.426,36.267,126.609,2.631,126.609,2.631C126.609,2.631,126.609,101.617,126.609,101.617C126.609,101.617,46.807,146.771,46.807,146.771C46.807,146.771,47.812,148.549,47.812,148.549C47.812,148.549,128.134,103.102,128.134,103.102C128.456,102.921,128.651,102.583,128.651,102.214C128.651,102.214,128.651,0.842,128.651,0.842C128.651,0.475,128.455,0.141,128.138,-0.04C127.819,-0.228,127.429,-0.221,127.114,-0.036C127.114,-0.036,69.929,33.6,69.929,33.6C69.929,33.6,69.929,-11.247,69.929,-11.247C69.929,-11.62,69.727,-11.964,69.399,-12.145C69.399,-12.145,-9.35,-55.327,-9.35,-55.327C-9.35,-55.327,49.585,-90.517,49.585,-90.517C49.898,-90.705,50.087,-91.045,50.081,-91.41C50.077,-91.777,49.877,-92.112,49.558,-92.289C49.558,-92.289,-51.481,-148.422,-51.481,-148.422C-51.638,-148.506,-51.806,-148.549,-51.977,-148.549Z" /></g><g id="i74" transform="matrix(1,0,0,1,-3079.508,322.153)"><path fill="url(#i40)" d="M-15.484,-191.166C-15.484,-191.166,-77.507,-154.969,-77.507,-154.969C-77.824,-154.786,-78.016,-154.443,-78.014,-154.078C-78.012,-153.711,-77.814,-153.377,-77.495,-153.196C-77.495,-153.196,-6.468,-113.256,-6.468,-113.256C-6.468,-113.256,-45.538,-89.977,-45.538,-89.977C-45.853,-89.788,-46.045,-89.446,-46.037,-89.079C-46.029,-88.712,-45.825,-88.378,-45.501,-88.201C-45.501,-88.201,32.347,-45.893,32.347,-45.893C32.347,-45.893,-7.37,-22.876,-7.37,-22.876C-7.687,-22.693,-7.883,-22.35,-7.881,-21.981C-7.875,-21.616,-7.673,-21.278,-7.354,-21.097C-7.354,-21.097,14.412,-9.048,14.412,-9.048C14.412,-9.048,14.412,36.119,14.412,36.119C14.412,36.486,14.608,36.828,14.93,37.007C15.254,37.19,15.641,37.184,15.956,36.996C15.956,36.996,75.974,1.238,75.974,1.238C75.974,1.238,75.974,191.166,75.974,191.166C75.974,191.166,78.014,191.166,78.014,191.166C78.014,191.166,78.014,-0.562,78.014,-0.562C78.014,-0.927,77.818,-1.269,77.499,-1.45C77.177,-1.633,76.786,-1.627,76.471,-1.44C76.471,-1.44,16.454,34.321,16.454,34.321C16.454,34.321,16.454,-9.65,16.454,-9.65C16.454,-10.023,16.252,-10.365,15.929,-10.542C15.929,-10.542,-4.784,-22.012,-4.784,-22.012C-4.784,-22.012,34.946,-45.036,34.946,-45.036C35.265,-45.221,35.459,-45.563,35.455,-45.934C35.449,-46.301,35.243,-46.639,34.919,-46.816C34.919,-46.816,-42.952,-89.137,-42.952,-89.137C-42.952,-89.137,-3.906,-112.403,-3.906,-112.403C-3.593,-112.592,-3.404,-112.93,-3.408,-113.293C-3.412,-113.656,-3.612,-113.994,-3.927,-114.167C-3.927,-114.167,-74.94,-154.103,-74.94,-154.103C-74.94,-154.103,-14.455,-189.406,-14.455,-189.406C-14.455,-189.406,-15.484,-191.166,-15.484,-191.166Z" /></g><g id="i75" transform="matrix(1,0,0,1,-3039.046,565.089)"><path fill="url(#i41)" d="M7.006,-3.453C7.006,0.726,4.154,5.646,0.51,7.75C-0.59,8.385,-1.666,8.71,-2.686,8.71C-5.27,8.71,-7.006,6.596,-7.006,3.455C-7.006,-0.726,-4.153,-5.648,-0.512,-7.752C0.588,-8.387,1.664,-8.71,2.684,-8.71C5.268,-8.71,7.006,-6.598,7.006,-3.453ZM-0.512,5.981C2.454,4.266,4.964,-0.053,4.964,-3.453C4.964,-5.466,4.11,-6.668,2.684,-6.668C2.037,-6.668,1.287,-6.431,0.51,-5.984C-2.456,-4.267,-4.963,0.053,-4.963,3.455C-4.963,5.466,-4.11,6.666,-2.686,6.666C-2.041,6.666,-1.289,6.428,-0.512,5.981Z" /></g><g id="i76" transform="matrix(1,0,0,1,-3166.052,518.722)"><path fill="url(#i42)" d="M7.004,-3.453C7.004,0.728,4.151,5.648,0.508,7.75C-0.592,8.387,-1.668,8.708,-2.686,8.708C-5.309,8.708,-7.004,6.645,-7.004,3.455C-7.004,-0.726,-4.151,-5.648,-0.512,-7.75C0.588,-8.385,1.664,-8.708,2.684,-8.708C5.266,-8.708,7.004,-6.598,7.004,-3.453ZM-0.512,5.981C2.454,4.269,4.959,-0.053,4.959,-3.453C4.959,-5.464,4.11,-6.666,2.684,-6.666C2.037,-6.666,1.285,-6.428,0.508,-5.981C-2.455,-4.269,-4.961,0.051,-4.961,3.455C-4.961,5.464,-4.112,6.666,-2.686,6.666C-2.039,6.666,-1.289,6.428,-0.512,5.981Z" /></g><g id="i77" transform="matrix(1,0,0,1,-3002.405,517.426)"><path fill="url(#i43)" d="M7.004,-3.456C7.004,0.725,4.149,5.647,0.51,7.751C-0.593,8.386,-1.668,8.709,-2.686,8.709C-5.307,8.709,-7.004,6.646,-7.004,3.456C-7.004,-0.725,-4.151,-5.649,-0.512,-7.751C0.591,-8.386,1.664,-8.709,2.684,-8.709C5.268,-8.709,7.004,-6.597,7.004,-3.456ZM-0.512,5.983C2.456,4.268,4.962,-0.054,4.962,-3.456C4.962,-5.465,4.106,-6.667,2.684,-6.667C2.037,-6.667,1.287,-6.43,0.51,-5.983C-2.456,-4.268,-4.961,0.052,-4.961,3.456C-4.961,5.465,-4.112,6.667,-2.686,6.667C-2.039,6.667,-1.289,6.43,-0.512,5.983Z" /></g><g id="i78" transform="matrix(1,0,0,1,-2966.136,604.482)"><path fill="url(#i44)" d="M7.005,-3.453C7.005,0.728,4.152,5.65,0.513,7.75C-0.59,8.387,-1.665,8.708,-2.685,8.708C-5.269,8.708,-7.005,6.6,-7.005,3.455C-7.005,-0.726,-4.15,-5.648,-0.511,-7.75C0.592,-8.385,1.665,-8.708,2.687,-8.708C5.269,-8.708,7.005,-6.596,7.005,-3.453ZM-0.511,5.981C2.457,4.269,4.96,-0.053,4.96,-3.453C4.96,-5.464,4.109,-6.666,2.687,-6.666C2.04,-6.666,1.288,-6.429,0.513,-5.982C-2.457,-4.269,-4.96,0.053,-4.96,3.455C-4.96,5.464,-4.109,6.666,-2.685,6.666C-2.038,6.666,-1.284,6.428,-0.511,5.981Z" /></g><g id="i79" transform="matrix(1,0,0,1,-2921.23,555.481)"><path fill="url(#i45)" d="M7.004,-3.454C7.004,0.727,4.151,5.649,0.512,7.749C-0.588,8.386,-1.664,8.709,-2.684,8.709C-5.268,8.709,-7.004,6.597,-7.004,3.454C-7.004,-0.727,-4.151,-5.649,-0.51,-7.751C0.592,-8.386,1.668,-8.709,2.686,-8.709C5.309,-8.709,7.004,-6.646,7.004,-3.454ZM-0.51,5.982C2.456,4.269,4.962,-0.052,4.962,-3.454C4.962,-5.465,4.11,-6.665,2.686,-6.665C2.037,-6.665,1.289,-6.43,0.512,-5.983C-2.456,-4.268,-4.961,0.054,-4.961,3.454C-4.961,5.465,-4.112,6.667,-2.684,6.667C-2.039,6.667,-1.285,6.427,-0.51,5.982Z" /></g><g id="i80" transform="matrix(1,0,0,1,-3021.835,473.484)"><path fill="url(#i46)" d="M7.005,-3.456C7.005,0.723,4.152,5.647,0.509,7.751C-0.594,8.388,-1.667,8.709,-2.687,8.709C-5.271,8.709,-7.005,6.596,-7.005,3.456C-7.005,-0.723,-4.152,-5.647,-0.513,-7.751C0.587,-8.386,1.663,-8.709,2.683,-8.709C5.267,-8.709,7.005,-6.599,7.005,-3.456ZM-0.513,5.982C2.455,4.27,4.96,-0.054,4.96,-3.456C4.96,-5.465,4.109,-6.667,2.683,-6.667C2.036,-6.667,1.284,-6.43,0.509,-5.985C-2.459,-4.266,-4.962,0.054,-4.962,3.456C-4.962,5.465,-4.111,6.667,-2.687,6.667C-2.04,6.667,-1.29,6.429,-0.513,5.982Z" /></g><g id="i81" transform="matrix(1,0,0,1,-2877.972,517.007)"><path fill="url(#i47)" d="M7.004,-3.455C7.004,0.726,4.149,5.648,0.51,7.752C-0.59,8.387,-1.666,8.71,-2.684,8.71C-5.268,8.71,-7.004,6.598,-7.004,3.455C-7.004,-0.724,-4.151,-5.648,-0.51,-7.75C0.59,-8.385,1.666,-8.71,2.686,-8.71C5.268,-8.71,7.004,-6.598,7.004,-3.455ZM-0.51,5.984C2.456,4.269,4.963,-0.053,4.963,-3.455C4.963,-5.464,4.108,-6.666,2.686,-6.666C2.037,-6.666,1.289,-6.429,0.51,-5.984C-2.456,-4.267,-4.962,0.055,-4.962,3.455C-4.962,5.466,-4.108,6.666,-2.684,6.666C-2.037,6.666,-1.287,6.429,-0.51,5.984Z" /></g><g id="i82" transform="matrix(1,0,0,1,-2826.236,547.918)"><path fill="url(#i48)" d="M7.004,-3.454C7.004,0.727,4.151,5.649,0.512,7.751C-0.588,8.386,-1.664,8.709,-2.686,8.709C-5.268,8.709,-7.004,6.597,-7.004,3.454C-7.004,-0.727,-4.151,-5.649,-0.512,-7.749C0.591,-8.386,1.664,-8.709,2.684,-8.709C5.268,-8.709,7.004,-6.597,7.004,-3.454ZM-0.512,5.982C2.456,4.267,4.961,-0.052,4.961,-3.454C4.961,-5.463,4.11,-6.665,2.684,-6.665C2.039,-6.665,1.287,-6.428,0.512,-5.981C-2.458,-4.268,-4.962,0.054,-4.962,3.454C-4.962,5.465,-4.108,6.667,-2.686,6.667C-2.039,6.667,-1.285,6.429,-0.512,5.982Z" /></g><g id="i83" transform="matrix(1,0,0,1,-2741.605,418.53)"><path fill="url(#i49)" d="M7.004,-3.455C7.004,0.724,4.151,5.648,0.51,7.752C-0.59,8.387,-1.666,8.71,-2.684,8.71C-5.268,8.71,-7.004,6.598,-7.004,3.455C-7.004,-0.726,-4.151,-5.648,-0.51,-7.75C0.59,-8.385,1.666,-8.71,2.686,-8.71C5.268,-8.71,7.004,-6.598,7.004,-3.455ZM-0.51,5.981C2.456,4.266,4.961,-0.055,4.961,-3.455C4.961,-5.464,4.108,-6.666,2.686,-6.666C2.039,-6.666,1.287,-6.429,0.51,-5.984C-2.456,-4.269,-4.962,0.053,-4.962,3.455C-4.962,5.466,-4.108,6.668,-2.684,6.668C-2.039,6.668,-1.287,6.428,-0.51,5.981Z" /></g><g id="i84" transform="matrix(1,0,0,1,-2720.446,321.494)"><path fill="url(#i50)" d="M7.005,-3.454C7.005,0.725,4.148,5.647,0.507,7.749C-0.593,8.384,-1.669,8.709,-2.687,8.709C-5.269,8.709,-7.005,6.594,-7.005,3.454C-7.005,-0.725,-4.152,-5.651,-0.511,-7.749C0.589,-8.386,1.665,-8.709,2.683,-8.709C5.306,-8.709,7.005,-6.646,7.005,-3.454ZM-0.511,5.98C2.452,4.27,4.958,-0.05,4.958,-3.454C4.958,-5.465,4.109,-6.665,2.683,-6.665C2.036,-6.665,1.284,-6.429,0.507,-5.98C-2.456,-4.265,-4.962,0.054,-4.962,3.454C-4.962,5.465,-4.113,6.664,-2.687,6.664C-2.04,6.664,-1.288,6.427,-0.511,5.98Z" /></g><g id="i85" transform="matrix(1,0,0,1,-2759.362,-1.674)"><path fill="url(#i51)" d="M6.491,-4.317C8.404,-3.212,9.455,-1.678,9.455,-0.005C9.455,1.681,8.389,3.222,6.456,4.343C2.953,6.367,-3.011,6.374,-6.494,4.363C-8.404,3.258,-9.455,1.729,-9.455,0.052C-9.455,-1.634,-8.392,-3.179,-6.459,-4.292C-4.699,-5.31,-2.388,-5.866,0.052,-5.866C2.469,-5.866,4.76,-5.314,6.491,-4.317ZM5.436,2.57C6.693,1.845,7.411,0.906,7.411,-0.005C7.411,-0.92,6.722,-1.823,5.469,-2.549C2.598,-4.206,-2.545,-4.193,-5.436,-2.528C-6.693,-1.798,-7.415,-0.859,-7.415,0.052C-7.415,0.967,-6.726,1.87,-5.473,2.595C-4.043,3.419,-2.122,3.873,-0.053,3.873C2.032,3.873,3.983,3.411,5.436,2.57Z" /></g><g id="i86" transform="matrix(1,0,0,1,-2899.803,33.075)"><path fill="url(#i52)" d="M6.496,-4.312C8.406,-3.212,9.457,-1.682,9.457,-0.005C9.457,1.681,8.394,3.227,6.457,4.344C2.96,6.364,-3.009,6.375,-6.496,4.364C-8.406,3.264,-9.457,1.734,-9.457,0.057C-9.457,-1.629,-8.39,-3.174,-6.457,-4.291C-4.699,-5.305,-2.386,-5.865,0.054,-5.865C2.473,-5.865,4.761,-5.314,6.496,-4.312ZM5.436,2.576C6.691,1.85,7.415,0.91,7.415,-0.005C7.415,-0.92,6.724,-1.823,5.473,-2.544C2.602,-4.201,-2.545,-4.188,-5.434,-2.523C-6.691,-1.793,-7.413,-0.858,-7.413,0.057C-7.413,0.972,-6.724,1.871,-5.471,2.596C-4.045,3.42,-2.12,3.874,-0.051,3.874C2.039,3.874,3.981,3.413,5.436,2.576Z" /></g><g id="i87" transform="matrix(1,0,0,1,-2939.633,100.971)"><path fill="url(#i53)" d="M6.495,-4.313C8.405,-3.208,9.456,-1.679,9.456,-0.006C9.456,1.68,8.39,3.226,6.457,4.343C2.954,6.363,-3.01,6.378,-6.493,4.367C-8.403,3.262,-9.456,1.729,-9.456,0.056C-9.456,-1.634,-8.388,-3.175,-6.455,-4.292C-4.697,-5.306,-2.385,-5.867,0.055,-5.867C2.474,-5.867,4.76,-5.315,6.495,-4.313ZM5.437,2.574C6.694,1.848,7.416,0.905,7.416,-0.006C7.416,-0.921,6.723,-1.819,5.472,-2.545C2.601,-4.202,-2.544,-4.193,-5.435,-2.524C-6.692,-1.799,-7.414,-0.859,-7.414,0.056C-7.414,0.967,-6.721,1.874,-5.47,2.595C-4.042,3.419,-2.119,3.877,-0.052,3.877C2.034,3.877,3.982,3.415,5.437,2.574Z" /></g><g id="i88" transform="matrix(1,0,0,1,-2949.951,-23.704)"><path fill="url(#i54)" d="M6.494,-4.316C8.406,-3.211,9.455,-1.683,9.455,-0.005C9.455,1.681,8.389,3.223,6.456,4.344C2.955,6.364,-3.009,6.375,-6.494,4.364C-8.404,3.259,-9.455,1.73,-9.455,0.053C-9.455,-1.633,-8.39,-3.178,-6.459,-4.291C-4.697,-5.305,-2.387,-5.866,0.053,-5.866C2.472,-5.866,4.759,-5.314,6.494,-4.316ZM5.436,2.571C6.693,1.85,7.413,0.906,7.413,-0.005C7.413,-0.92,6.724,-1.823,5.471,-2.544C2.6,-4.205,-2.545,-4.192,-5.434,-2.523C-6.693,-1.797,-7.413,-0.858,-7.413,0.053C-7.413,0.968,-6.724,1.87,-5.471,2.596C-4.043,3.42,-2.119,3.874,-0.056,3.874C2.031,3.874,3.983,3.412,5.436,2.571Z" /></g><g id="i89" transform="matrix(1,0,0,1,-3088.343,-3.278)"><path fill="url(#i55)" d="M6.491,-4.312C8.404,-3.212,9.455,-1.677,9.455,-0.004C9.455,1.682,8.389,3.227,6.456,4.34C2.953,6.364,-3.011,6.376,-6.494,4.365C-8.404,3.26,-9.455,1.727,-9.455,0.049C-9.455,-1.632,-8.392,-3.178,-6.459,-4.291C-4.699,-5.305,-2.388,-5.865,0.054,-5.865C2.469,-5.865,4.76,-5.318,6.491,-4.312ZM5.436,2.576C6.691,1.846,7.411,0.907,7.411,-0.004C7.411,-0.923,6.724,-1.822,5.471,-2.547C2.598,-4.2,-2.545,-4.192,-5.436,-2.523C-6.691,-1.798,-7.415,-0.862,-7.415,0.057C-7.415,0.968,-6.726,1.87,-5.473,2.596C-4.043,3.42,-2.122,3.87,-0.053,3.87C2.033,3.87,3.983,3.413,5.436,2.576Z" /></g><g id="i90" transform="matrix(1,0,0,1,-3124.839,69.308)"><path fill="url(#i56)" d="M6.495,-4.312C8.403,-3.207,9.456,-1.678,9.456,-0.005C9.456,1.681,8.39,3.227,6.457,4.344C2.954,6.364,-3.01,6.375,-6.493,4.364C-8.406,3.264,-9.456,1.73,-9.456,0.053C-9.456,-1.629,-8.39,-3.174,-6.455,-4.291C-4.699,-5.305,-2.386,-5.866,0.052,-5.866C2.474,-5.866,4.76,-5.314,6.495,-4.312ZM5.435,2.579C6.692,1.845,7.416,0.91,7.416,-0.005C7.416,-0.92,6.726,-1.818,5.475,-2.544C2.604,-4.205,-2.544,-4.192,-5.435,-2.523C-6.69,-1.798,-7.412,-0.858,-7.412,0.057C-7.412,0.972,-6.725,1.875,-5.47,2.6C-4.044,3.424,-2.122,3.874,-0.055,3.874C2.032,3.874,3.984,3.412,5.435,2.579Z" /></g><g id="i91" transform="matrix(1,0,0,1,-3256.51,22.412)"><path fill="url(#i57)" d="M6.494,-4.312C8.404,-3.212,9.457,-1.681,9.457,-0.005C9.457,1.681,8.389,3.226,6.456,4.341C2.957,6.363,-3.007,6.373,-6.494,4.362C-8.407,3.262,-9.457,1.732,-9.457,0.057C-9.457,-1.631,-8.391,-3.176,-6.456,-4.289C-4.698,-5.307,-2.387,-5.864,0.053,-5.864C2.47,-5.864,4.763,-5.314,6.494,-4.312ZM5.434,2.575C6.691,1.848,7.413,0.908,7.413,-0.005C7.413,-0.92,6.724,-1.823,5.473,-2.546C2.6,-4.201,-2.541,-4.19,-5.434,-2.523C-6.695,-1.797,-7.415,-0.856,-7.415,0.057C-7.415,0.97,-6.726,1.872,-5.471,2.598C-4.045,3.42,-2.121,3.875,-0.052,3.875C2.034,3.875,3.983,3.412,5.434,2.575Z" /></g><g id="i92" transform="matrix(1,0,0,1,-3089.875,129.391)"><path fill="url(#i58)" d="M6.492,-4.315C8.402,-3.215,9.453,-1.681,9.457,-0.008C9.457,1.678,8.392,3.228,6.455,4.341C2.952,6.365,-3.012,6.372,-6.495,4.361C-8.405,3.261,-9.457,1.732,-9.457,0.059C-9.457,-1.631,-8.393,-3.177,-6.456,-4.294C-4.7,-5.308,-2.389,-5.864,0.049,-5.864C2.468,-5.864,4.759,-5.317,6.492,-4.315ZM5.432,2.573C6.691,1.847,7.413,0.907,7.413,-0.008C7.413,-0.923,6.722,-1.821,5.469,-2.542C2.598,-4.203,-2.545,-4.195,-5.436,-2.526C-6.693,-1.796,-7.415,-0.856,-7.415,0.059C-7.415,0.97,-6.726,1.872,-5.475,2.597C-4.045,3.417,-2.125,3.871,-0.056,3.871C2.03,3.871,3.981,3.41,5.432,2.573Z" /></g><g id="i64" transform="matrix(1,0,0,1,-3318.329,139.156)"><path fill="url(#i59)" d="M6.495,-4.31C8.403,-3.21,9.456,-1.682,9.456,-0.005C9.456,1.681,8.39,3.226,6.455,4.341C2.954,6.365,-3.01,6.375,-6.495,4.362C-8.405,3.262,-9.456,1.733,-9.456,0.057C-9.456,-1.631,-8.39,-3.176,-6.455,-4.289C-4.697,-5.307,-2.387,-5.866,0.053,-5.866C2.472,-5.866,4.758,-5.314,6.495,-4.31ZM5.435,2.573C6.69,1.848,7.414,0.91,7.414,-0.005C7.414,-0.922,6.723,-1.823,5.47,-2.546C2.601,-4.201,-2.544,-4.19,-5.435,-2.523C-6.694,-1.796,-7.416,-0.858,-7.416,0.057C-7.416,0.97,-6.725,1.873,-5.474,2.596C-4.046,3.418,-2.118,3.876,-0.053,3.876C2.033,3.876,3.982,3.412,5.435,2.573Z" /></g><g id="i62" transform="matrix(1,0,0,1,-3340.728,267.011)"><path fill="url(#i60)" d="M6.495,-4.311C8.405,-3.211,9.456,-1.681,9.456,-0.005C9.456,1.683,8.39,3.226,6.457,4.341C2.954,6.365,-3.014,6.372,-6.493,4.363C-8.403,3.263,-9.456,1.734,-9.456,0.058C-9.456,-1.628,-8.392,-3.175,-6.455,-4.292C-4.697,-5.308,-2.387,-5.864,0.053,-5.864C2.472,-5.864,4.762,-5.317,6.495,-4.311ZM5.435,2.572C6.692,1.849,7.414,0.91,7.414,-0.005C7.414,-0.918,6.725,-1.821,5.472,-2.546C2.603,-4.199,-2.544,-4.191,-5.435,-2.522C-6.692,-1.797,-7.414,-0.857,-7.414,0.058C-7.414,0.973,-6.724,1.874,-5.475,2.595C-4.045,3.419,-2.118,3.873,-0.053,3.873C2.033,3.873,3.984,3.413,5.435,2.572Z" /></g></g></g></g></g></svg>